<?xml version="1.0" encoding="UTF-8" standalone="no"?>
<svg
   xmlns:dc="http://purl.org/dc/elements/1.1/"
   xmlns:cc="http://creativecommons.org/ns#"
   xmlns:rdf="http://www.w3.org/1999/02/22-rdf-syntax-ns#"
   xmlns:svg="http://www.w3.org/2000/svg"
   xmlns="http://www.w3.org/2000/svg"
   id="svg8"
   version="1.1"
   viewBox="0 0 88.9 50.8"
   height="2in"
   width="3.5in">
  <defs
     id="defs2" />
  <metadata
     id="metadata5">
    <rdf:RDF>
      <cc:Work
         rdf:about="">
        <dc:format>image/svg+xml</dc:format>
        <dc:type
           rdf:resource="http://purl.org/dc/dcmitype/StillImage" />
        <dc:title></dc:title>
      </cc:Work>
    </rdf:RDF>
  </metadata>
  <g
     transform="translate(0,-246.2)"
     style="display:inline"
     id="layer1">
    <path
       transform="matrix(0.07198464,0,0,0.05921883,24.307785,248.24488)"
       d="m -181.5554,141.12868 c 5.58289,5.84519 -5.1248,10.40944 -9.7151,9.27914 -12.43941,-3.06305 -14.0818,-19.12414 -8.84319,-28.70932 9.37065,-17.14566 32.71668,-18.64363 47.70356,-8.40725 21.99384,15.02231 23.34563,46.49542 7.97129,66.69779 -20.49157,26.92658 -60.34049,28.10766 -85.69202,7.53535 -31.90231,-25.88816 -32.9008,-74.21723 -7.0994,-104.686255 31.24896,-36.902068 88.11182,-37.711977 123.68049,-6.663452 41.916437,36.589607 42.534463,102.017537 6.2275,142.674717 -41.91782,46.94032 -115.93069,47.3645 -161.66895,5.79156 -51.97071,-47.23783 -52.19982,-129.849063 -5.35561,-180.663186 52.55214,-57.005767 143.77124,-57.038979 199.657419,-4.91966 62.044255,57.862323 61.881002,157.696266 4.483711,218.651646"
       id="path18"
       style="fill:none;fill-rule:evenodd;stroke:#000000;stroke-width:5.6002655;stroke-miterlimit:4;stroke-dasharray:0.56002658, 0.56002658;stroke-dashoffset:0" />
    <path
       transform="matrix(0.07198464,0,0,0.05921883,24.307785,248.24488)"
       d="m -181.5554,141.12868 c 5.58289,5.84519 -5.1248,10.40944 -9.7151,9.27914 -12.43941,-3.06305 -14.0818,-19.12414 -8.84319,-28.70932 9.37065,-17.14566 32.71668,-18.64363 47.70356,-8.40725 21.99384,15.02231 23.34563,46.49542 7.97129,66.69779 -20.49157,26.92658 -60.34049,28.10766 -85.69202,7.53535 -31.90231,-25.88816 -32.9008,-74.21723 -7.0994,-104.686255 31.24896,-36.902068 88.11182,-37.711977 123.68049,-6.663452 41.916437,36.589607 42.534463,102.017537 6.2275,142.674717 -41.91782,46.94032 -115.93069,47.3645 -161.66895,5.79156 -51.97071,-47.23783 -52.19982,-129.849063 -5.35561,-180.663186 52.55214,-57.005767 143.77124,-57.038979 199.657419,-4.91966 62.044255,57.862323 61.881002,157.696266 4.483711,218.651646"
       id="path18-3"
       style="display:inline;fill:#88aa00;fill-rule:evenodd;stroke:#000000;stroke-width:5.6002655;stroke-miterlimit:4;stroke-dasharray:0.56002659, 0.56002659;stroke-dashoffset:0" />
    <flowRoot
       transform="matrix(0.08270311,0,0,0.06756929,20.526643,236.52098)"
       style="font-style:normal;font-weight:normal;font-size:192px;line-height:1.25;font-family:sans-serif;letter-spacing:0px;word-spacing:0px;fill:#668000;fill-opacity:1;stroke:#000000;stroke-width:3.77952766;stroke-miterlimit:4;stroke-dasharray:none"
       id="flowRoot4550"
       xml:space="preserve"><flowRegion
         style="font-size:192px;fill:#668000;stroke:#000000;stroke-width:3.77952766;stroke-miterlimit:4;stroke-dasharray:none"
         id="flowRegion4552"><rect
           style="font-size:192px;fill:#668000;stroke:#000000;stroke-width:3.77952766;stroke-miterlimit:4;stroke-dasharray:none"
           y="185.37683"
           x="51.42857"
           height="722.85712"
           width="1268.5714"
           id="rect4554" /></flowRegion><flowPara
         id="flowPara4556">Seolynn</flowPara></flowRoot>    <text
       id="text4562"
       y="263.72495"
       x="25.524239"
       style="font-style:normal;font-weight:normal;font-size:3.52777767px;line-height:1.25;font-family:sans-serif;letter-spacing:0px;word-spacing:0px;fill:#000000;fill-opacity:1;stroke:none;stroke-width:0.26458332"
       xml:space="preserve"><tspan
         style="stroke-width:0.26458332"
         y="263.72495"
         x="25.524239"
         id="tspan4560">natural progression</tspan></text>
    <text
       id="text4562-6"
       y="286.07974"
       x="1.3979858"
       style="font-style:normal;font-weight:normal;font-size:3.52777767px;line-height:1.25;font-family:sans-serif;letter-spacing:0px;word-spacing:0px;display:inline;fill:#000000;fill-opacity:1;stroke:none;stroke-width:0.26458332"
       xml:space="preserve"><tspan
         style="stroke-width:0.26458332"
         y="286.07974"
         x="1.3979858"
         id="tspan4560-7">seolynn.com</tspan><tspan
         id="tspan4582"
         style="stroke-width:0.26458332"
         y="290.48947"
         x="1.3979858">(469)-645-8068</tspan><tspan
         id="tspan4586"
         style="stroke-width:0.26458332"
         y="294.8992"
         x="1.3979858">https://www.ebay.com/usr/feeby2494</tspan><tspan
         id="tspan4584"
         style="stroke-width:0.26458332"
         y="299.3089"
         x="1.3979858" /></text>
    <text
       transform="scale(1.0610332,0.94247758)"
       id="text4590"
       y="292.02011"
       x="2.1376965"
       style="font-style:normal;font-weight:normal;font-size:3.37666917px;line-height:1.25;font-family:sans-serif;letter-spacing:0px;word-spacing:0px;fill:#000000;fill-opacity:1;stroke:none;stroke-width:0.25325018"
       xml:space="preserve"><tspan
         style="stroke-width:0.25325018"
         y="292.02011"
         x="2.1376965"
         id="tspan4588">Software, Telecommunications, and Electronics</tspan></text>
    <path
       id="path4599"
       d="M 0,266.39764 88.867118,266.264"
       style="display:inline;fill:none;fill-rule:evenodd;stroke:#000000;stroke-width:0.26458332px;stroke-linecap:butt;stroke-linejoin:miter;stroke-opacity:1" />
  </g>
</svg>
