<?xml version="1.0" encoding="UTF-8" standalone="no"?>
<!-- Created with Inkscape (http://www.inkscape.org/) -->

<svg
   xmlns:dc="http://purl.org/dc/elements/1.1/"
   xmlns:cc="http://creativecommons.org/ns#"
   xmlns:rdf="http://www.w3.org/1999/02/22-rdf-syntax-ns#"
   xmlns:svg="http://www.w3.org/2000/svg"
   xmlns="http://www.w3.org/2000/svg"
   xmlns:sodipodi="http://sodipodi.sourceforge.net/DTD/sodipodi-0.dtd"
   xmlns:inkscape="http://www.inkscape.org/namespaces/inkscape"
   width="154"
   height="26"
   viewBox="0 0 40.745798 6.8791697"
   version="1.1"
   id="svg4657"
   inkscape:version="0.92.5 (2060ec1f9f, 2020-04-08)"
   sodipodi:docname="seolynnLogo.svg"
   inkscape:export-filename="/home/jamie/Documents/webProjects/repair_stores/theTekCowboysFlaskReact/public/seolynnLogo.png"
   inkscape:export-xdpi="96"
   inkscape:export-ydpi="96">
  <defs
     id="defs4651" />
  <sodipodi:namedview
     id="base"
     pagecolor="#ffffff"
     bordercolor="#666666"
     borderopacity="1.0"
     inkscape:pageopacity="0.0"
     inkscape:pageshadow="2"
     inkscape:zoom="5.6"
     inkscape:cx="97.420791"
     inkscape:cy="54.440415"
     inkscape:document-units="mm"
     inkscape:current-layer="layer1"
     showgrid="false"
     units="px"
     height="49px"
     inkscape:window-width="1920"
     inkscape:window-height="1015"
     inkscape:window-x="1680"
     inkscape:window-y="0"
     inkscape:window-maximized="1" />
  <metadata
     id="metadata4654">
    <rdf:RDF>
      <cc:Work
         rdf:about="">
        <dc:format>image/svg+xml</dc:format>
        <dc:type
           rdf:resource="http://purl.org/dc/dcmitype/StillImage" />
        <dc:title></dc:title>
      </cc:Work>
    </rdf:RDF>
  </metadata>
  <g
     inkscape:label="Layer 1"
     inkscape:groupmode="layer"
     id="layer1"
     transform="translate(0,-290.12075)">
    <path
       sodipodi:type="spiral"
       style="display:inline;fill:none;fill-rule:evenodd;stroke:#000000;stroke-width:5.6002655;stroke-miterlimit:4;stroke-dasharray:0.56002658, 0.56002658;stroke-dashoffset:0"
       id="path18"
       sodipodi:cx="-181.5554"
       sodipodi:cy="141.12868"
       sodipodi:expansion="1"
       sodipodi:revolution="3"
       sodipodi:radius="161.21385"
       sodipodi:argument="-18.04121"
       sodipodi:t0="0"
       d="m -181.5554,141.12868 c 5.58289,5.84519 -5.1248,10.40944 -9.7151,9.27914 -12.43941,-3.06305 -14.0818,-19.12414 -8.84319,-28.70932 9.37065,-17.14566 32.71668,-18.64363 47.70356,-8.40725 21.99384,15.02231 23.34563,46.49542 7.97129,66.69779 -20.49157,26.92658 -60.34049,28.10766 -85.69202,7.53535 -31.90231,-25.88816 -32.9008,-74.21723 -7.0994,-104.686255 31.24896,-36.902068 88.11182,-37.711977 123.68049,-6.663452 41.916437,36.589607 42.534463,102.017537 6.2275,142.674717 -41.91782,46.94032 -115.93069,47.3645 -161.66895,5.79156 -51.97071,-47.23783 -52.19982,-129.849063 -5.35561,-180.663186 52.55214,-57.005767 143.77124,-57.038979 199.657419,-4.91966 62.044255,57.862323 61.881002,157.696266 4.483711,218.651646"
       transform="matrix(0.03420839,0,0,0.02394465,10.756097,290.42198)" />
    <path
       sodipodi:type="spiral"
       style="display:inline;fill:#88aa00;fill-rule:evenodd;stroke:#000000;stroke-width:5.6002655;stroke-miterlimit:4;stroke-dasharray:0.56002659, 0.56002659;stroke-dashoffset:0"
       id="path18-3"
       sodipodi:cx="-181.5554"
       sodipodi:cy="141.12868"
       sodipodi:expansion="1"
       sodipodi:revolution="3"
       sodipodi:radius="161.21385"
       sodipodi:argument="-18.04121"
       sodipodi:t0="0"
       d="m -181.5554,141.12868 c 5.58289,5.84519 -5.1248,10.40944 -9.7151,9.27914 -12.43941,-3.06305 -14.0818,-19.12414 -8.84319,-28.70932 9.37065,-17.14566 32.71668,-18.64363 47.70356,-8.40725 21.99384,15.02231 23.34563,46.49542 7.97129,66.69779 -20.49157,26.92658 -60.34049,28.10766 -85.69202,7.53535 -31.90231,-25.88816 -32.9008,-74.21723 -7.0994,-104.686255 31.24896,-36.902068 88.11182,-37.711977 123.68049,-6.663452 41.916437,36.589607 42.534463,102.017537 6.2275,142.674717 -41.91782,46.94032 -115.93069,47.3645 -161.66895,5.79156 -51.97071,-47.23783 -52.19982,-129.849063 -5.35561,-180.663186 52.55214,-57.005767 143.77124,-57.038979 199.657419,-4.91966 62.044255,57.862323 61.881002,157.696266 4.483711,218.651646"
       transform="matrix(0.03420839,0,0,0.02394465,10.756097,290.42198)" />
    <text
       xml:space="preserve"
       style="font-style:normal;font-weight:normal;font-size:6.29154778px;line-height:1.25;font-family:sans-serif;letter-spacing:0px;word-spacing:0px;display:inline;fill:#668000;fill-opacity:1;stroke:#000000;stroke-width:0.12400003;stroke-miterlimit:4;stroke-dasharray:none"
       x="9.1550694"
       y="354.28293"
       id="text5405"
       transform="scale(1.199384,0.83376132)"><tspan
         sodipodi:role="line"
         x="9.1550694"
         y="354.28293"
         id="tspan5403"
         style="stroke-width:0.12400003"><tspan
           x="9.1550694"
           y="354.28293"
           id="tspan5401"
           style="stroke-width:0.12400003">Seolynn</tspan></tspan></text>
    <text
       xml:space="preserve"
       style="font-style:normal;font-weight:normal;font-size:1.54640043px;line-height:1.25;font-family:sans-serif;letter-spacing:0px;word-spacing:0px;display:inline;fill:#000000;fill-opacity:1;stroke:none;stroke-width:0.11598003"
       x="10.454856"
       y="321.63406"
       id="text4562"
       transform="scale(1.0841066,0.92241852)"><tspan
         sodipodi:role="line"
         id="tspan4560"
         x="10.454856"
         y="321.63406"
         style="stroke-width:0.11598003">natural progression</tspan></text>
  </g>
</svg>
