<?xml version="1.0" encoding="UTF-8" standalone="no"?>
<svg
   xmlns:dc="http://purl.org/dc/elements/1.1/"
   xmlns:cc="http://creativecommons.org/ns#"
   xmlns:rdf="http://www.w3.org/1999/02/22-rdf-syntax-ns#"
   xmlns:svg="http://www.w3.org/2000/svg"
   xmlns="http://www.w3.org/2000/svg"
   xmlns:sodipodi="http://sodipodi.sourceforge.net/DTD/sodipodi-0.dtd"
   xmlns:inkscape="http://www.inkscape.org/namespaces/inkscape"
   id="svg4657"
   version="1.1"
   viewBox="0 0 40.745798 6.8791692"
   height="26"
   width="154"
   sodipodi:docname="seolynnLogoText.svg"
   inkscape:version="0.92.5 (2060ec1f9f, 2020-04-08)">
  <sodipodi:namedview
     pagecolor="#ffffff"
     bordercolor="#666666"
     borderopacity="1"
     objecttolerance="10"
     gridtolerance="10"
     guidetolerance="10"
     inkscape:pageopacity="0"
     inkscape:pageshadow="2"
     inkscape:window-width="1680"
     inkscape:window-height="1025"
     id="namedview5469"
     showgrid="false"
     inkscape:zoom="6.5411765"
     inkscape:cx="42.765203"
     inkscape:cy="4.2471547"
     inkscape:window-x="0"
     inkscape:window-y="0"
     inkscape:window-maximized="1"
     inkscape:current-layer="svg4657" />
  <defs
     id="defs4651" />
  <metadata
     id="metadata4654">
    <rdf:RDF>
      <cc:Work
         rdf:about="">
        <dc:format>image/svg+xml</dc:format>
        <dc:type
           rdf:resource="http://purl.org/dc/dcmitype/StillImage" />
        <dc:title></dc:title>
      </cc:Work>
    </rdf:RDF>
  </metadata>
  <g
     transform="translate(-1.7797518,-288.30056)"
     id="layer1">
    <path
       transform="matrix(0.03420839,0,0,0.02394465,12.645979,288.57935)"
       d="m -181.5554,141.12868 c 5.58289,5.84519 -5.1248,10.40944 -9.7151,9.27914 -12.43941,-3.06305 -14.0818,-19.12414 -8.84319,-28.70932 9.37065,-17.14566 32.71668,-18.64363 47.70356,-8.40725 21.99384,15.02231 23.34563,46.49542 7.97129,66.69779 -20.49157,26.92658 -60.34049,28.10766 -85.69202,7.53535 -31.90231,-25.88816 -32.9008,-74.21723 -7.0994,-104.686255 31.24896,-36.902068 88.11182,-37.711977 123.68049,-6.663452 41.916437,36.589607 42.534463,102.017537 6.2275,142.674717 -41.91782,46.94032 -115.93069,47.3645 -161.66895,5.79156 -51.97071,-47.23783 -52.19982,-129.849063 -5.35561,-180.663186 52.55214,-57.005767 143.77124,-57.038979 199.657419,-4.91966 62.044255,57.862323 61.881002,157.696266 4.483711,218.651646"
       id="path18"
       style="display:inline;fill:none;fill-rule:evenodd;stroke:#000000;stroke-width:5.6002655;stroke-miterlimit:4;stroke-dasharray:0.56002658, 0.56002658;stroke-dashoffset:0"
       inkscape:connector-curvature="0" />
    <path
       transform="matrix(0.03420839,0,0,0.02394465,12.645979,288.57935)"
       d="m -181.5554,141.12868 c 5.58289,5.84519 -5.1248,10.40944 -9.7151,9.27914 -12.43941,-3.06305 -14.0818,-19.12414 -8.84319,-28.70932 9.37065,-17.14566 32.71668,-18.64363 47.70356,-8.40725 21.99384,15.02231 23.34563,46.49542 7.97129,66.69779 -20.49157,26.92658 -60.34049,28.10766 -85.69202,7.53535 -31.90231,-25.88816 -32.9008,-74.21723 -7.0994,-104.686255 31.24896,-36.902068 88.11182,-37.711977 123.68049,-6.663452 41.916437,36.589607 42.534463,102.017537 6.2275,142.674717 -41.91782,46.94032 -115.93069,47.3645 -161.66895,5.79156 -51.97071,-47.23783 -52.19982,-129.849063 -5.35561,-180.663186 52.55214,-57.005767 143.77124,-57.038979 199.657419,-4.91966 62.044255,57.862323 61.881002,157.696266 4.483711,218.651646"
       id="path18-3"
       style="display:inline;fill:#88aa00;fill-rule:evenodd;stroke:#000000;stroke-width:5.6002655;stroke-miterlimit:4;stroke-dasharray:0.56002659, 0.56002659;stroke-dashoffset:0"
       inkscape:connector-curvature="0" />
    <flowRoot
       transform="matrix(0.03930199,0,0,0.02732109,10.849113,283.8389)"
       style="font-style:normal;font-weight:normal;font-size:192px;line-height:1.25;font-family:sans-serif;letter-spacing:0px;word-spacing:0px;display:inline;fill:#668000;fill-opacity:1;stroke:#000000;stroke-width:3.78412533;stroke-miterlimit:4;stroke-dasharray:none"
       id="flowRoot4550"
       xml:space="preserve"><flowRegion
         style="font-size:192px;fill:#668000;stroke:#000000;stroke-width:3.78412533;stroke-miterlimit:4;stroke-dasharray:none"
         id="flowRegion4552"><rect
           style="font-size:192px;fill:#668000;stroke:#000000;stroke-width:3.78412533;stroke-miterlimit:4;stroke-dasharray:none"
           y="185.37683"
           x="51.42857"
           height="722.85712"
           width="1268.5714"
           id="rect4554" /></flowRegion><flowPara
         id="flowPara4556">Seolynn</flowPara></flowRoot>    <text
       transform="scale(1.0841066,0.92241852)"
       id="text4562"
       y="319.63644"
       x="12.198118"
       style="font-style:normal;font-weight:normal;font-size:1.54640043px;line-height:1.25;font-family:sans-serif;letter-spacing:0px;word-spacing:0px;display:inline;fill:#000000;fill-opacity:1;stroke:none;stroke-width:0.11598003"
       xml:space="preserve"><tspan
         style="stroke-width:0.11598003"
         y="319.63644"
         x="12.198118"
         id="tspan4560">natural progression</tspan></text>
  </g>
</svg>
