<?xml version="1.0" standalone="no"?><!DOCTYPE svg PUBLIC "-//W3C//DTD SVG 1.1//EN"   "http://www.w3.org/Graphics/SVG/1.1/DTD/svg11.dtd"><svg width="1080" height="1080" version="1.1"    xmlns="http://www.w3.org/2000/svg" xmlns:xlink="http://www.w3.org/1999/xlink">  <defs>  </defs>   <path id="0" stroke-width="0.9" stroke="#FFFFFF" stroke-opacity="1" fill="#000000" fill-opacity="1" fill-rule="evenodd" stroke-linecap="round" stroke-linejoin="round" d="M986.9,357.8 C987.8,357 988.5,355.5 988.5,354.4 988.5,352 985,348.6 982.5,348.6 980,348.6 979.9,349.2 982,351.2 984.2,353.3 983.3,355 980.1,354.8 978.6,354.7 977.4,355 977.4,355.5 977.4,357.1 980.6,359.4 983,359.4 984.3,359.4 986.1,358.7 986.9,357.8 Z M125.7,995.2 C120.4,994.8 114.5,994 112.6,993.5 110.4,992.8 105.5,992.7 99.1,993.2 93.5,993.6 84,993.9 77.8,993.8 77.8,993.8 66.7,993.8 66.7,993.8 66.7,993.8 66.4,990.8 66.4,990.8 66.2,988.3 67.1,986.9 72.5,981.7 78.2,976.2 95,964.9 97.5,964.9 98,964.9 100.3,962.6 102.4,959.7 105.7,955.5 108,953.3 114.5,948.7 114.7,948.6 110.2,943.9 104.4,938.3 98.3,932.4 91.5,924.6 88,919.4 84.7,914.6 81.2,909.5 80.2,908 77.6,904.2 66.6,881.9 64.8,876.7 62.6,870.1 59.4,854.5 58,843.1 56.5,830.8 56.4,790.5 57.9,781.5 57.9,781.5 59.1,774.8 59.1,774.8 59.1,774.8 55,768.8 55,768.8 50.1,761.7 42.6,746.8 39.4,737.7 36.4,729.2 31.7,709.2 28.2,689.5 25.4,674.6 25.3,672.6 25.4,643.6 25.4,624.5 25.9,610.3 26.7,605.4 28.9,591.9 32,576.4 34.1,568.2 35.2,563.9 36.7,557.7 37.5,554.4 38.7,548.8 47.9,525 55.3,508.3 57,504.4 62.3,494.7 67,486.8 71.7,478.9 77.4,469.2 79.7,465.2 85.5,455.3 95.3,442.8 105.8,432.2 115.5,422.4 114.9,423.9 116.8,406.5 117.4,401 118.1,395.8 118.4,395.1 119.2,393.1 117.7,392.8 110.4,393.7 98.2,395.2 48.9,399.4 36.3,400.1 28.1,400.5 23.9,400.4 23.4,399.7 23.1,399.1 23.2,398.4 23.7,398.1 26.6,396.3 73.7,389.5 98.6,387.3 108.3,386.4 117.2,385.5 118.4,385.2 120.1,384.9 120.9,383.4 122.6,376.8 123.7,372.3 124.3,368.4 124,368 123.3,367.4 118.7,366.7 86.9,362.8 30.3,355.8 11.5,352.3 14.5,349.4 15.3,348.6 18.5,348.6 26.5,349.4 32.5,350 45.2,351.2 54.6,352.1 75.3,353.9 93.3,355.9 112.1,358.5 119.8,359.5 126.4,360.1 126.7,359.8 127.2,359.3 131.8,347.8 133.5,342.7 134.2,340.7 124.8,337.1 82.7,323.2 49.1,312 43,309.6 43,307.4 43,305.6 51.2,307.1 72.9,312.9 94.4,318.5 106.3,322.3 124.8,329.5 131.1,331.9 136.6,333.9 137,333.9 137.4,333.9 140.2,329 143.3,322.9 149.4,311.2 158.8,298.4 169,287.8 172.5,284.3 175.3,281.2 175.3,280.9 175.3,280.2 164.2,281.1 159.3,282.2 156.9,282.7 154.6,282.9 154.3,282.6 153.5,281.8 158.2,275.9 162.5,272.5 162.5,272.5 166.6,269.2 166.6,269.2 166.6,269.2 159.4,269.7 159.4,269.7 150.3,270.2 150.1,269.2 157.6,263 157.6,263 163,258.4 163,258.4 163,258.4 158.7,251.9 158.7,251.9 144.5,230.5 138.7,214.3 135.9,188.9 135,180.1 135,175.2 135.9,167.4 137.6,152.9 140.8,138.9 144.3,131 148,122.4 150.4,119.1 154.2,117.2 156.9,115.9 157.5,115.9 160.4,117.3 162.2,118.2 167.1,122.5 171.2,126.9 184.9,141.6 196.1,160.4 202.4,179.4 207,193.1 207.9,198.9 208,215.1 208.1,223.2 208.5,230.3 209,230.9 209.4,231.7 210.9,231.9 212.7,231.6 214.3,231.2 216.4,231.3 217.4,231.6 218.9,232.2 218.7,232.6 216.3,235.1 213.1,238.3 213.4,238.6 220.1,239.6 220.1,239.6 225,240.3 225,240.3 225,240.3 221.9,243.4 221.9,243.4 220.2,245.1 218.8,246.8 218.8,247.2 218.8,247.5 220.4,247.9 222.4,247.9 225.6,247.9 226,248.1 225.5,249.8 224.9,252.2 225.8,252.2 230.6,250.3 234.9,248.5 234.7,248.8 244.9,233.2 257.8,213.6 257.3,213.8 280.7,216.1 290,217 297.9,217.5 298.2,217.2 298.5,216.9 297.8,215.4 296.7,213.8 294.1,210.3 291.5,201 291.5,195.4 291.5,188.5 293.5,181.5 295.8,179.9 298.8,177.9 308.2,177.9 309,179.9 309.4,180.7 309,185 308.2,189.4 306.4,199 306.2,211.1 307.8,215.4 308.5,217.4 309.8,218.7 311.4,219.1 314,219.8 342.7,218.9 354.2,217.9 366.8,216.8 384.2,222.8 396.6,232.4 402.1,236.7 402.7,237.6 402.2,239.9 401.8,241.3 401.4,243.1 401.3,243.8 401.1,245.1 412.4,249.5 413.4,248.5 413.7,248.3 413.1,246.9 412.2,245.6 410.1,242.4 411.5,241.6 417.3,242.4 419.8,242.8 421.8,242.8 421.8,242.5 421.8,242.1 420.7,240.4 419.3,238.6 415.5,233.8 415.9,233 421.8,233.8 421.8,233.8 426.9,234.4 426.9,234.4 426.9,234.4 426.9,230.4 426.9,230.4 426.9,223.9 430.7,206.5 434.5,196 444.5,168.2 457.4,147.1 472.5,133.9 480,127.4 485.6,125 490.5,126.4 495.2,127.8 496.7,129.5 499.4,136.6 506.7,155.6 506.1,196.1 498.1,220.8 494.3,232.8 485.1,247.1 474.7,257.6 472.3,260 470.3,262.7 470.3,263.4 470.3,264.2 472,266.7 474,269.2 474,269.2 477.7,273.5 477.7,273.5 477.7,273.5 471,273.1 471,273.1 463.9,272.7 463.9,272.6 467.9,277.9 471.8,282.9 471.2,283.9 465.3,282 460.9,280.5 460.4,281.5 464.1,284.6 467.9,287.7 468.2,289.9 464.7,289.9 461.3,289.9 461.6,291.2 466.1,296.1 475.3,305.9 482.6,316.5 490.5,331.5 492.4,335 493.6,336.3 495.1,336.2 496.2,336.2 503.2,334.3 510.7,332 542.1,322.6 584.7,311.7 600.8,309.1 605.2,308.3 606.7,309.8 603.4,311.8 599,314.4 558.4,327.2 518.8,338.4 508,341.4 498.7,344.3 498.3,344.6 497.5,345.4 504.2,360 505.7,360.9 506.2,361.1 510.5,360.9 515.4,360.4 520.3,359.9 535,358.8 548.1,357.9 576.7,356.1 636,356.2 636.7,358.1 637.6,360.8 626.4,361.8 545.6,366.7 512.5,368.7 508.5,369.1 509.1,370.8 509.4,371.6 510.4,374.6 511.3,377.5 512.1,380.4 513.2,383 513.6,383.2 513.9,383.4 522.4,384.8 532.4,386.2 556.7,389.7 562.7,390.7 598,397.6 631.7,404.3 632.2,404.4 631.1,406.1 630.1,407.6 621.8,406.8 589.5,402.4 578.1,400.8 561.1,398.6 551.6,397.5 542.2,396.4 530.4,394.8 525.4,394.1 520.5,393.3 516.2,392.9 515.9,393.2 515.6,393.4 515.9,395.7 516.5,398.3 517.2,400.8 518.6,408 519.8,414.2 523.9,436.4 525.7,440.5 535.3,449.1 541.9,454.9 555,461.6 576.9,469.9 604.4,480.5 617.5,483.1 643.5,483.1 643.5,483.1 662.7,483 662.7,483 662.7,483 676.4,478.5 676.4,478.5 683.9,476.1 693.8,472.7 698.5,471 703.2,469.3 709.1,467.5 711.6,466.9 714.2,466.4 720.8,464.2 726.4,462 726.4,462 736.5,458.1 736.5,458.1 736.5,458.1 739.3,446.2 739.3,446.2 740.9,439.6 743.7,428 745.6,420.5 749.8,403.7 759,365.9 783.9,262 787.6,247 791.7,229.9 793.2,224.1 794.6,218.4 795.6,213 795.3,212.3 793.4,207.6 758.4,206.1 736.8,209.7 726.6,211.4 711.2,215.1 706.5,217 705.1,217.6 703.9,216 700,208.6 693.1,195.2 687.5,187.3 678.8,178.5 664.7,164.1 648.9,153.2 636.1,149.1 630.5,147.3 620.2,145.5 603.4,143.6 597.3,142.9 597.3,141.9 603.2,133.2 611.5,121.2 629.4,105.6 648.4,93.9 667.3,82.1 702.9,68.7 726.4,64.5 753.2,59.6 760.3,58.9 785.5,58.9 802.8,58.9 813.1,59.6 828.4,61.8 835.1,62.8 835.4,62.7 837,57 838.2,52.7 844,46 848,44.4 851.4,43 855,44.4 859.2,48.8 861.5,51.2 861.7,52.1 861.7,60.5 861.7,60.5 861.6,69.6 861.6,69.6 861.6,69.6 874.8,74.2 874.8,74.2 899.3,82.7 915.4,91.4 936,107 955.8,122 974.6,140.5 987.7,157.9 1005.9,182.1 1016,202.4 1022.8,229 1027.6,247.7 1028.9,260.6 1025.9,260.6 1025.4,260.6 1020.3,259.7 1014.6,258.7 959.9,248.6 931.6,251.5 902.6,270 898.9,272.3 895.6,274.3 895.2,274.3 894.9,274.3 889.7,269.5 883.7,263.7 873.1,253.3 862.2,244.9 845.2,233.9 837,228.5 819.9,219.5 818.1,219.5 817.2,219.5 814.1,230.9 798.6,293.3 795.2,306.8 790.7,324.8 788.5,333.5 786.4,342.1 782.5,357.7 779.9,368.2 765.5,425.8 760.2,447.2 759.3,450.1 758.3,453.8 758.6,454.3 762.5,454.3 768.3,454.3 771.5,458.2 767.9,461 767.2,461.6 766.8,463.2 767,464.5 767.4,466.4 766.4,468.1 762.3,472.2 759.5,475.1 757.2,477.7 757.2,478 757.2,478.3 759.1,478.9 761.5,479.2 768.5,480.4 770.6,483.6 765.8,485.7 764.4,486.3 763,487.7 762.7,488.7 762,490.7 757.7,492.7 752,493.8 747.7,494.5 747.8,494.2 743.2,512.5 739.8,526.1 733.7,539.4 728.7,543.9 725.1,547.1 717.8,550.1 713.5,550.1 711.2,550.1 710.3,551 707.8,555.8 700.8,569.2 684.7,587.4 672.7,595.7 669.3,598.1 661.2,602.6 654.6,605.8 631.8,616.7 610.4,621.9 582.6,623.2 575.3,623.5 569.1,624.1 568.8,624.4 568.6,624.7 569.8,631.1 571.3,638.7 572.9,646.2 577,666.2 580.4,683.2 583.8,700.1 587,716 587.5,718.4 592.1,739.4 597.9,781.5 598,795.4 598.1,803.7 598.4,806.1 599.2,805.2 599.9,804.5 603,799.6 606.2,794.2 620.2,770.6 627.4,761.8 637.8,755.9 641,754 642,752.9 641.4,751.8 640,748.6 639.8,734.3 641,730.5 643.5,723.2 650.6,713 659.2,704.7 667.8,696.3 686.6,683.2 687.3,685.1 687.9,686.9 684.5,720.5 683,727.2 681,736.1 680.3,737.8 675,744 672.4,747.1 670.3,749.8 670.3,750 670.3,750.3 672.7,751 675.6,751.7 679.8,752.7 687.7,755.7 692.7,758.3 693.1,758.5 695.8,754.2 698.6,748.8 703.1,740.4 704.7,738.3 709.6,734.7 717.9,728.6 723.5,725 730.9,721.1 737.9,717.5 754.9,711 755.6,711.7 756.1,712.1 751.4,728.8 748.1,738 746.9,741.5 743.2,749.7 739.9,756.3 733.3,769.6 732.7,770.2 720.6,774.8 716.8,776.2 713.8,777.9 713.8,778.5 713.8,779.2 714.7,781.5 715.8,783.7 719.2,790.6 721,800.4 721.9,817.7 722.8,835.8 723.4,838.5 730.9,856.3 737.6,872.1 739,878.4 739.7,895 740.2,907.1 739.9,912.1 738.1,923.8 735.8,938.7 735.7,939.2 731.4,951.7 728.6,959.9 723.5,969.8 719.2,975.2 716,979.3 704.8,985 696.5,986.8 692.9,987.6 684.1,988.5 676.9,988.9 669.7,989.2 661.5,990.1 658.8,990.9 651.2,993 643.2,992.7 637.8,990.1 634.1,988.3 631.7,987.9 625.3,988 620.9,988 615.2,988.6 612.7,989.3 606.8,990.9 594.5,990.2 591.1,988 589.7,987.1 588.5,985.5 588.5,984.5 588.5,982.4 586.9,981.8 586.3,983.6 585.7,985.3 577.8,986.4 565,986.4 555.9,986.4 551.7,986.9 547.2,988.3 534.3,992.6 509.5,993.1 442,990.4 429,989.9 405.1,989.5 389,989.4 359,989.3 353.7,988.8 346.4,985.1 341.5,982.7 338,977.7 338,973.2 338,973.2 338,969.5 338,969.5 338,969.5 330.2,970.2 330.2,970.2 326,970.5 321.4,970.8 320.1,970.8 318.1,970.8 317.8,971.3 317.7,974 317.7,978.7 313.8,984.6 309.1,987.1 303.9,989.9 295.5,992 281.7,993.9 272.9,995.1 257.8,995.5 203.1,995.7 165.9,995.9 131.1,995.6 125.7,995.2 Z M272.1,991.3 C287.2,990.2 301.3,987.7 306.6,985 311,982.8 313.7,978.9 313.7,974.6 313.7,970.1 314.3,970.3 295.5,968.8 266.1,966.6 231.1,960.2 212.2,953.8 182.5,943.6 166.5,936.4 152.1,926.5 132.6,913.1 112,889.1 99.8,865.6 91.6,849.6 82.3,822.6 79.5,806 78.9,802.7 78,797.4 77.4,794.2 75.5,783.6 74.1,758.2 74.7,746.3 76.2,721 83.7,677.7 91.2,652.4 99.1,625.4 119.4,586 137.2,562.9 149.6,546.8 170.8,527.9 193,513 213.3,499.4 253.9,485.2 283.9,481.3 317.3,476.9 358.8,476.6 379.5,480.7 409.3,486.5 427.3,493.7 455.7,510.8 481.1,526.2 499.2,543.9 517.5,570.8 526.9,584.8 548.8,627.4 555.4,644.5 562.4,662.9 564.3,669.8 569.3,693.9 575.8,725.3 576.7,732.6 576.7,753.1 576.7,776.7 575,790.1 569.8,806.9 569,809.6 566.9,816.4 565.2,822 559.9,839.1 552.7,853.8 540.2,872.5 526.1,893.5 502.3,917.3 482.4,930.1 467.8,939.5 458.4,944.1 439,951.6 421.3,958.3 412.5,960.9 398.6,963.3 381.6,966.3 377.6,966.8 362.2,967.9 353.6,968.5 345.5,969.2 344.3,969.4 339.4,970.4 343,978 350.4,982.4 355.7,985.5 366.5,986.6 380.1,985.4 395.6,984.1 439.1,984.7 480.4,986.8 506.4,988.2 515.2,988.3 522.8,987.4 536.7,985.9 546.6,983.6 550.3,981.2 556.3,977.3 558.1,965.9 553.8,959.3 551.6,955.9 543.7,948.3 542.5,948.3 542.2,948.3 537.7,950.3 532.6,952.7 527.4,955.1 522.4,957.1 521.3,957.1 520.2,957.1 515.9,958 511.7,959.1 504.1,961 484.1,963.9 478.1,963.9 472.4,963.9 476.6,962.2 487.2,960.1 501.3,957.4 512.5,954.6 523.3,951.2 532.7,948.2 540.4,943.1 551.9,932.3 556.7,927.8 557,926.6 554.1,923.6 545.2,914.3 551.7,885.8 569.1,858.8 571.9,854.5 578.1,843.5 582.9,834.3 582.9,834.3 591.8,817.7 591.8,817.7 591.8,817.7 592.3,806.4 592.3,806.4 593,790.1 586.9,743.1 580.1,712.5 578.7,706.3 576.8,696.7 575.9,691 574.9,685.4 572.6,672.8 570.8,663.1 568.9,653.4 566.2,639.8 564.9,632.8 560.7,611.3 558,595.1 558.5,593.9 559.2,592 562.2,599.6 565.2,610.3 565.2,610.3 567.8,620.1 567.8,620.1 567.8,620.1 571.9,620.4 571.9,620.4 581.5,621.2 612.6,616.8 626.7,612.6 642.3,608 663.5,597.6 675.5,588.7 682.3,583.6 691.2,574.3 696.6,566.6 700.6,561.1 706.7,551.3 706.7,550.7 706.7,550.4 704.1,549.1 700.9,547.7 687.5,541.8 681.7,531 682.6,513.2 683.1,502.7 685,499.9 692.1,499.5 695.8,499.3 697.7,499.8 699.6,501.1 701.9,502.9 702.1,503.7 702.1,511.7 702.1,521.4 703.7,525.2 708.2,526.3 713.3,527.5 715.7,526 718.8,519.5 722.8,511 726.1,499.3 724.5,498.8 723.9,498.6 722.1,498.2 720.6,497.9 717.3,497.2 712.8,492.7 712.6,490 712.2,482.8 714.6,479.7 724.1,474.8 731.8,470.8 730.7,469.4 720.1,469.7 711.6,469.9 706.6,471.2 688.5,478 682.1,480.3 672.3,483.6 666.8,485.2 657.6,487.8 655.4,488 641.5,488 617.5,487.9 590,482 566.8,471.9 542.9,461.5 532.8,455 526.2,445.8 520.6,437.9 519.2,433.8 516.8,418.9 514.3,403.2 512.2,393.7 511.1,392.7 510.6,392.3 504.8,390.9 498.2,389.7 486.4,387.5 481.7,385.4 482.7,382.6 483.6,379.8 486.4,379.5 496.8,381.1 502.5,382 507.5,382.4 507.9,382 508.6,381.4 505.5,371.6 504.1,370.3 503.8,370 499.8,369.9 495.2,370 488.4,370.2 486.4,370 485.1,368.7 481.6,365.3 484.2,363.2 493,362.6 496.7,362.3 499.9,361.7 500.1,361.3 500.7,360.4 494.6,347.5 493.2,346.5 492.7,346.2 490.2,346.5 487.7,347.3 481.6,349.1 476.5,349 475.7,347.1 474.8,344.9 476.9,343.1 482.6,341.1 485.4,340.1 487.9,338.8 488.2,338.1 489.5,334.9 467.9,302.6 458.2,293.4 454.9,290.2 452.1,287.1 452.1,286.7 452.1,286.2 453.9,286 456.2,286.2 458.4,286.4 460.2,286.4 460.2,286.2 460.2,286 458.6,283.9 456.7,281.4 452.8,276.5 452.2,274.7 454.9,275.7 458.5,277.2 462.6,278.1 463.1,277.7 463.3,277.4 462.9,276.4 462,275.5 461.2,274.6 459.9,272.7 459.2,271.5 459.2,271.5 458,269.1 458,269.1 458,269.1 464.8,269.8 464.8,269.8 464.8,269.8 471.6,270.5 471.6,270.5 471.6,270.5 468.9,267.2 468.9,267.2 465.7,263.1 465.6,261.4 468.4,259 471.8,256 480.8,244.9 486,237.2 492.5,227.4 496.2,216.8 498.7,201 502.9,174.8 501,146.7 494.3,135.1 490.8,129.1 489.4,128.6 483.8,131.5 477.3,134.8 463.7,147.4 459.1,154.2 454,161.9 441.6,186.4 439.2,193.6 437.1,200 430.6,225 429.2,232.2 428.5,236 428,236.6 425.6,236.9 422.3,237.3 422.2,237.5 424.8,241 427.3,244.3 426.7,244.9 421.1,244.9 416.2,244.9 415.8,245.7 418.9,249.8 423.1,255.3 419.5,255.4 405.8,250.1 405.8,250.1 399.4,247.6 399.4,247.6 399.4,247.6 394.7,252.1 394.7,252.1 389.8,256.7 384.2,259.6 380.1,259.6 375.3,259.6 367.6,256.6 362.3,252.6 356.9,248.7 356.6,248.6 350.6,249.1 347.2,249.3 343.2,250.2 341.8,250.9 340.3,251.6 336.7,255.6 333.8,259.6 326.4,269.6 322.4,271.6 310.7,271.1 304.9,270.9 300.8,270.2 298.1,268.9 292.5,266.3 283.7,257.4 279,249.5 276.6,245.5 274.4,243 273.4,243 265,243 236,250.8 219.1,257.6 215.6,259 215.5,257.5 218.9,254 218.9,254 222.2,250.8 222.2,250.8 222.2,250.8 217.4,250.8 217.4,250.8 214.8,250.8 212.7,250.5 212.7,250.3 212.7,250 214.3,248.1 216.3,246.1 216.3,246.1 220,242.5 220,242.5 220,242.5 214.6,242.2 214.6,242.2 211.6,242.1 208.1,241.7 206.7,241.4 206.7,241.4 204.2,240.9 204.2,240.9 204.2,240.9 207.7,237.8 207.7,237.8 207.7,237.8 211.1,234.6 211.1,234.6 211.1,234.6 208.5,234.4 208.5,234.4 208.5,234.4 205.9,234.1 205.9,234.1 205.9,234.1 205.4,219.7 205.4,219.7 204.5,197.1 199.7,177 191.2,160.1 184.2,146 162,119.7 157.1,119.7 153.1,119.7 145,135.4 141.8,149.4 138.6,163.4 138.6,191.6 141.9,206.8 145.3,223 151.9,236.8 165.6,256.8 165.6,256.8 167.3,259.4 167.3,259.4 167.3,259.4 161.7,263 161.7,263 158.6,264.9 156.1,266.8 156.1,267.1 156.1,267.6 163.2,267 171.5,265.8 173.8,265.5 175.3,265.7 175.3,266.3 175.3,266.8 172.1,269.5 168.2,272.3 164.3,275.1 161.3,277.6 161.5,277.9 161.8,278.1 164.6,277.8 167.8,277.3 174.9,276 184.4,275.9 184.4,277.1 184.4,277.6 181,281.4 176.8,285.7 162,300.6 152.1,313.5 145,327 142.8,331.4 141,335.1 141,335.4 141,335.7 145,337.8 149.9,340.2 160.5,345.3 162.3,347 159.9,349.3 158.3,350.8 157.5,350.7 148.8,347.3 143.7,345.3 139,343.7 138.4,343.7 137.3,343.7 131.8,356.9 131.9,359.5 131.9,360.7 134.2,361.4 142.4,362.8 154.2,364.7 155.5,365.2 155,367.8 154.6,369.4 153.6,369.6 148,369.6 144.4,369.6 138.8,369.4 135.4,369.1 135.4,369.1 129.4,368.7 129.4,368.7 129.4,368.7 128.1,372.6 128.1,372.6 127.3,374.7 126.5,378.4 126.1,380.7 126.1,380.7 125.5,385 125.5,385 125.5,385 129,384.4 129,384.4 130.8,384.1 136.9,383.8 142.5,383.6 152.2,383.4 152.6,383.4 152.9,385.5 153.3,388.1 152.5,388.4 137,390.5 130.3,391.4 124.5,392.6 124,393.2 123.5,393.7 122.3,400 121.3,407.3 120.3,414.6 119,421.4 118.5,422.5 117.1,425 111.9,431.3 103.6,440.6 92,453.4 84.3,464.5 71.2,487.5 60.8,505.8 60,507.6 46.2,541.5 40.4,555.7 34.6,578.6 31.8,598.1 30.1,609.9 29.5,655.5 30.8,671.9 33.3,704.2 41.1,733.4 54.3,759.2 56.5,763.7 58.8,767.3 59.2,767.3 60.4,767.3 61.1,762.7 67.8,715.5 71.6,687.9 77.6,659.7 91.1,605.9 95.4,588.9 99.3,573.4 99.7,571.4 100.2,569.4 101,567.7 101.4,567.7 103.1,567.7 100.7,579.9 91.9,617 79.9,667.5 72.6,706 67.3,746.8 66.2,755.1 64.8,765.2 64.2,769.3 61.6,785.5 61.3,791.2 61.2,812.8 61.2,845.6 63.7,862 72,883.6 76.4,895.2 80.5,902.5 90.2,916.7 105,938.2 132.1,959.1 153.6,965.4 158.6,966.8 163.6,968.4 164.7,968.8 165.8,969.3 167.4,969.9 168.3,970.1 172.8,971.6 164.6,970.5 154.2,968.3 141.8,965.6 135,962.6 124.9,955.2 124.9,955.2 119.5,951.3 119.5,951.3 119.5,951.3 114.9,954.4 114.9,954.4 108.9,958.6 104.7,963.8 103.6,968.5 102.2,974.1 104.8,982 109.5,986.5 112.9,989.8 113.9,990.2 120.3,990.8 124.2,991.1 128.3,991.6 129.4,991.7 135,992.6 259.2,992.2 272.1,991.3 Z M91.7,981 C98.5,978.7 99.6,978 99.6,976 99.6,974.8 99.1,973.7 98.5,973.7 95.6,973.7 73.7,986 72.9,988.1 72.6,988.8 74.9,988.1 78.1,986.6 81.3,985 87.4,982.5 91.7,981 Z M104,988.6 C104.6,987.6 100.8,981.3 99.8,981.8 99.4,982 96.8,983.1 94,984.3 81.7,989.5 81.8,989.2 93.2,989.3 98.9,989.3 103.7,989 104,988.6 Z M651.1,986 C651.4,984.5 652.2,983 652.8,982.8 653.7,982.5 653.9,983.4 653.4,986 653.4,986 652.8,989.7 652.8,989.7 652.8,989.7 656.3,989 656.3,989 661.5,988 662.8,986.3 661.2,982.5 658.6,976.4 649.3,973.7 643.1,977.3 639.7,979.2 636.6,984 637.4,986 638.1,987.9 640,987.8 640,985.8 640,984.1 642.8,980.6 644.2,980.6 644.6,980.6 644.3,982 643.5,983.8 641.8,987.9 643.1,989.6 647.6,989.2 650,988.9 650.7,988.4 651.1,986 Z M603.6,985.1 C605.1,981.4 606.7,981 606.7,984.4 606.7,987.2 607,987.4 610.1,987.4 615,987.4 616.3,985.4 613.7,982.2 610.8,978.6 606.6,976.7 601.7,976.7 598.5,976.7 597,977.4 593.9,980.1 591,982.8 590.4,983.8 591.4,984.7 592.3,985.6 593.2,985.1 595.5,982.5 598.7,978.8 599.2,979 597.6,983 596.3,986.3 597,987.4 600.2,987.4 601.9,987.4 603,986.7 603.6,985.1 Z M677.7,984.8 C679,984 685.2,970.8 687.1,965.1 689.5,957.4 691.5,946.3 692.2,936.3 692.5,931.1 692.6,926.8 692.3,926.8 692,926.8 689.6,927.7 687,928.8 678.5,932.5 669.8,931 665.5,925.1 660.9,918.8 660.2,910.4 663.3,897 663.3,897 665.3,888.3 665.3,888.3 665.3,888.3 662,885.5 662,885.5 654.2,878.9 650.1,876.7 644.5,876.2 641.4,875.9 638.7,875.2 638.4,874.8 636.6,871.9 647.4,865.1 653.8,865.1 656.6,865.1 657.7,865.8 660.2,869.2 661.9,871.4 664,874.9 664.9,877 665.9,879.1 666.9,880.8 667.2,880.8 667.5,880.8 668.6,878.3 669.6,875.3 671.3,870 671.3,869.8 669.4,866.7 665.7,861 654.8,851.8 647.5,848.3 636.8,843 629.7,841.3 619.8,841.4 604,841.6 590.1,847 579.7,857.1 579.7,857.1 577,859.7 577,859.7 577,859.7 580.1,860.4 580.1,860.4 581.8,860.9 585.2,862.9 587.6,865 591.1,868.1 591.8,869.1 590.8,870.1 589.8,871.1 588.6,871.1 584.7,870.2 578.2,868.6 573.9,870 572.3,874.3 570.6,878.6 569.9,906.2 571.2,914.5 575.4,941.3 583.1,963.5 591.6,973.6 593.3,975.7 593.9,975.8 596.1,974.8 597.5,974.2 600.8,973.7 603.5,973.7 609.2,973.7 614.8,977 616.7,981.4 617.7,983.8 618.7,984.3 622.5,984.8 632.2,986.1 633.7,985.8 635,982 635.6,980.1 637.7,977.4 639.8,975.9 642.8,973.7 644.4,973.2 649.7,973.2 657.4,973.2 660.6,975.2 664.2,982 664.2,982 666.7,986.6 666.7,986.6 666.7,986.6 671.7,986 671.7,986 674.5,985.6 677.2,985.1 677.7,984.8 Z M700.4,982.4 C710.3,979.3 715.6,975.2 720.6,966.8 732,947.5 737.9,920.6 736.7,893.5 736,878.5 734.5,872.3 727.4,855.4 720,837.7 719.8,836.8 718.8,816.7 717.8,796 717.1,792.5 712.5,783.4 710.6,779.6 709.7,776.7 710.3,776.2 710.8,775.7 715.1,773.8 719.8,771.8 724.4,769.9 729.4,767.3 730.7,766.1 732.9,764.1 735.9,758.7 740.5,748.2 743.4,741.7 752.2,716.1 751.7,715.7 750.6,714.6 729.6,724.9 719.8,731.2 708.6,738.5 704.7,742.8 699.3,753.4 697,758.1 695,762.1 694.9,762.3 694.8,762.4 691.4,761 687.3,759.1 677.7,754.7 669.3,752.7 660.1,752.6 652.2,752.5 653.2,751.4 662.2,750.2 666.3,749.7 667.3,749 671.8,743.8 679.3,735.1 679.7,733.4 684,694.1 684.7,688 685.4,687.8 674,696.2 658.7,707.4 646,722.1 643,732.2 641.7,736.5 642.9,750.4 644.7,752.1 645.4,752.9 646.1,753.7 646.1,753.9 646.1,754.2 643.6,755.8 640.5,757.4 634.1,760.9 625.5,769.1 620.4,776.5 618.5,779.3 612.8,788.7 607.9,797.2 603,805.8 596.1,817.4 592.5,823.1 584,836.7 576.7,852.4 578.9,852.4 579.2,852.4 581.5,850.9 584.1,849 590.3,844.4 593.6,842.8 601.6,840.5 609.6,838.3 624.8,837.9 633.4,839.7 646,842.3 661,851.2 668,860.2 670,862.9 672.1,865.1 672.5,865.1 672.8,865.1 673.7,863.7 674.3,862 675,859.9 675.7,859.2 676.4,859.9 677.1,860.5 676.6,863.7 674.8,869.6 667.3,894.3 666.2,898.6 665.6,906.4 664.6,920 668.8,927.7 677.4,927.7 682.7,927.7 692.6,922.7 699.7,916.3 705.1,911.4 717.6,896.1 719.1,892.5 719.6,891.3 719.7,891.3 719.7,892.6 719.9,895.8 709.1,911.6 701.9,918.6 701.9,918.6 694.6,925.8 694.6,925.8 694.6,925.8 694.6,935.3 694.6,935.3 694.6,940.6 693.9,948.4 693.1,952.7 691.6,960.8 687,974.9 684.1,980.3 683.2,982 682.4,983.9 682.4,984.5 682.4,986.1 692.3,984.9 700.4,982.4 Z M578.4,981.8 C578.3,981 562.8,972.3 561.5,972.3 561.2,972.3 560.4,973.8 559.9,975.7 559.4,977.6 558.6,979.6 558,980.3 557.3,981.2 558.6,981.5 563.4,981.8 576.4,982.5 578.4,982.5 578.4,981.8 Z M587.8,972.6 C582.5,965.6 578.5,956.5 573.7,940.2 573.7,940.2 569.8,926.7 569.8,926.7 569.8,926.7 565.8,927.3 565.8,927.3 562.5,927.8 560.7,929.1 556.7,933.4 553.9,936.4 550.4,940 548.9,941.3 548.9,941.3 546.1,943.6 546.1,943.6 546.1,943.6 552.1,949.3 552.1,949.3 555.3,952.4 559.6,955.4 561.5,956.1 570.7,959 588.5,974.1 588.5,979 588.5,980.9 588.6,980.9 590.2,979.4 591.7,977.8 591.6,977.4 587.8,972.6 Z M579.8,974.9 C575.6,971.3 563.1,963.9 561.3,963.9 560,963.9 559.9,965.9 561,967.5 561.4,968.1 563.8,969.6 566.3,970.8 568.8,972 572.6,974.2 574.9,975.7 579.5,978.7 581.6,979.5 582.9,978.8 583.4,978.5 582,976.8 579.8,974.9 Z M98.5,969.2 C101,966.9 97.5,967.5 94.5,969.9 94.5,969.9 92,971.9 92,971.9 92,971.9 94.5,971.2 94.5,971.2 95.9,970.9 97.7,970 98.5,969.2 Z M362.7,962.9 C399.1,959 414.6,955.2 447.5,942.5 465,935.7 474.3,930.4 489,919.1 521.4,893.9 547.8,858.3 559.6,824 568.4,798.2 571.7,779.7 571.7,755.1 571.8,737.2 571.2,732 567.1,707.6 564.4,691.7 553.9,655.2 547.9,640.8 541.8,626 525.1,592.5 517.8,580.4 503.6,556.9 478.4,530.4 457.7,517 435.8,502.9 411,492.4 383.9,485.8 372.9,483.2 372.6,483.2 338,483.1 310.2,483.1 300.4,483.5 289.7,484.9 247.4,490.4 202.5,509.8 172.3,535.7 159.9,546.3 148.5,557.7 141.7,566.3 124.4,587.9 101.3,631.5 95.1,653.9 90.2,671.9 85.3,693.6 83.8,704.2 83,710.1 81.6,720.3 80.7,726.7 77.8,747.8 78.8,767.4 84.3,803.1 86.9,819.7 87.7,822.9 92.6,837.1 97.7,851.9 104.6,865.8 112.7,877.9 135.7,911.7 155.4,926.7 199.6,943.9 211,948.3 221.4,952.2 222.8,952.4 224.2,952.7 230.6,954.2 236.9,955.9 273.4,965.3 318.1,967.8 362.7,962.9 Z M564.5,960.9 C562.7,959.8 560.7,959.1 560,959.3 559.3,959.6 560.3,960.5 562.2,961.3 567.2,963.5 568.4,963.3 564.5,960.9 Z M568,924 C569,923.4 568.9,920.7 567.7,911.1 566.3,900.9 566.2,897.1 567.2,887.8 567.8,881.7 569,874 569.8,870.7 572.6,859.1 571.6,859.5 564.9,872.5 552.8,895.9 549.6,918 557.5,923.4 559.8,924.9 566,925.3 568,924 Z M665.3,884.3 C665.3,883 660.7,873.9 658.5,870.8 655.5,866.5 653.9,866.3 647.1,869.1 640.8,871.7 639.7,873.9 644.6,873.9 649.4,873.9 653.8,875.9 659.2,880.7 663.3,884.2 665.3,885.4 665.3,884.3 Z M588.5,868 C588.5,867 580.9,862.2 579.3,862.2 577.2,862.2 574.7,864.3 574,866.6 573.4,868.4 573.9,868.6 580.9,868.6 585.1,868.6 588.5,868.3 588.5,868 Z M720,545.2 C729.7,542.7 736,530.7 743.1,501.2 744.8,494 746.7,486.7 747.2,485.2 747.7,483.6 747.9,482.1 747.7,481.9 747.5,481.7 743.4,484.7 738.6,488.5 731.4,494.4 729.7,496.3 728.9,499.6 723.7,519.1 720.4,526.8 716.4,528.8 715.2,529.4 712.8,529.8 711,529.8 702.6,529.5 698,522.8 699,512.5 699.7,506.2 699.3,505.1 695.9,503.3 691.6,501.1 688.5,501.9 686.9,505.6 683.9,512.5 685.9,529.7 690.3,535.4 693.5,539.5 699.3,543.5 704.9,545.4 710.2,547.2 712.5,547.2 720,545.2 Z M733,488.4 C743.1,480.2 752.1,471.8 752.1,470.6 752.1,469.4 744.9,470.7 737.5,473.1 726,476.8 715.8,482.8 715.8,485.7 715.8,489.3 720.5,494.9 723.9,495.3 724.2,495.3 728.3,492.2 733,488.4 Z M754.4,490.4 C759.1,489.2 759.5,487.4 754.9,488.1 750.1,488.9 749.1,489.3 749.1,490.4 749.1,491.7 749.7,491.7 754.4,490.4 Z M762.1,484.4 C766.5,483.1 764.7,482 757,481.1 751.6,480.5 751.4,480.5 750.9,483 750.6,484.4 750.6,485.7 750.9,486 751.5,486.5 757.8,485.6 762.1,484.4 Z M759.5,471.2 C763.6,467.2 765.5,464 763.7,464 761.9,464 757.2,467.3 757.2,468.6 757.2,469.4 756.2,471.4 755.1,472.9 751.9,477.2 754.2,476.4 759.5,471.2 Z M734.3,466.7 C735.8,461.4 735.3,461.2 728.2,464.1 728.2,464.1 723.3,466.2 723.3,466.2 723.3,466.2 726.9,467.5 726.9,467.5 732.2,469.3 733.7,469.2 734.3,466.7 Z M747.4,467.4 C751.1,466.9 752.3,466.3 752.7,464.7 753,463.5 754.8,456.2 756.7,448.5 758.7,440.8 760.1,434.3 760,434.2 758.5,433.3 747.4,431.1 746.9,431.6 746.6,432 744.6,438.9 742.6,446.9 740.6,455 738.5,463 738.1,464.7 737.1,468.3 737.6,469.2 740.5,468.6 741.6,468.3 744.7,467.8 747.4,467.4 Z M761.2,461.5 C765.4,458.8 765.7,457.2 761.9,457.2 758.8,457.2 757.5,458.3 756.7,461.4 755.8,464.7 756.2,464.7 761.2,461.5 Z M762.1,426.6 C762.7,424.3 765.9,411.7 769.2,398.5 779.5,357 784.5,337.1 790.2,314.4 796.5,289 801.5,269.2 805.8,251.8 807.5,245 809.9,235.2 811.3,230 812.6,224.7 813.8,219.7 813.8,218.9 813.8,217.5 806.5,213.9 801.6,213 801.6,213 799,212.5 799,212.5 799,212.5 793.6,234.8 793.6,234.8 790.7,247.1 787.4,260.7 786.4,265 785.4,269.3 781.6,285.1 777.9,300.2 763,361.9 757,386.7 755.1,394.6 754,399.2 751.9,408.2 750.2,414.6 748.4,421.9 747.7,426.8 748.3,427.4 749.6,428.8 755.2,430.6 758.3,430.7 760.6,430.8 761.1,430.2 762.1,426.6 Z M896,239.8 C896.1,210.9 895.8,206.6 891.5,183.1 883.9,141 868.3,95.3 855,76.2 852,71.8 851,71.1 846,69.9 846,69.9 840.4,68.5 840.4,68.5 840.4,68.5 831.9,72.7 831.9,72.7 816.8,80.1 794.9,95.1 780.2,108 766.1,120.5 742.5,148.4 730.8,166.8 723.2,178.7 706.9,211.2 708,212.3 708.2,212.5 710.4,212 712.8,211.1 733.6,204 762.7,201.2 783.5,204.3 807.8,207.9 838.8,222 862.8,240.5 870.8,246.7 884.9,259.9 890.3,266.2 892.8,269.1 894.2,270.1 894.9,269.4 895.6,268.8 896,258.1 896,239.8 Z M323,266.1 C324.3,265.2 327.9,261.5 330.9,257.9 334,254.3 338,250.4 339.7,249.3 341.5,248.2 343,247 343,246.5 343,246.1 340.1,245.9 336.5,246 326.2,246.6 327.8,245.2 338.4,244.5 343.7,244.1 348.1,243.4 348.1,242.9 348.1,242.4 345.8,240.8 343,239.3 338.3,236.8 336.7,235.1 339,235.1 340.8,235.1 351.7,241.2 359.7,246.8 369.6,253.7 371.7,254.9 376.7,255.7 381.5,256.6 386.1,255.4 389.6,252.4 393.8,248.8 399.6,241.1 399.6,239.1 399.6,236.4 386,228.1 375.7,224.4 365.5,220.7 360.9,220.4 332.4,221.8 317,222.6 297.8,221.4 269.9,217.9 267.1,217.5 265.1,217.6 265.4,218.1 266.2,219.9 277.8,240.8 281.6,247.2 286.8,255.9 295.9,265.2 301.1,267 306.3,268.8 319.7,268.3 323,266.1 Z M916.7,257 C920.8,255.1 928.5,252.4 933.9,251 942.8,248.7 945.3,248.5 964.3,248.4 985.6,248.4 991.2,249 1013.6,253.8 1018.8,255 1023.2,255.6 1023.5,255.4 1025.2,253.8 1015.3,219.5 1008.9,204.5 997,176.6 975.9,148 949.9,124.7 929.6,106.5 915.5,96.8 896.3,87.8 883.3,81.8 857.2,72.5 857.2,74 857.2,74.5 858.7,77.4 860.6,80.4 869,94 875.9,110.8 884,137.9 888.8,154 890.2,159.4 893.5,176 898.5,200.6 899.1,207.1 899.1,237.3 899.1,237.3 899.1,266.3 899.1,266.3 899.1,266.3 904.2,263.4 904.2,263.4 906.9,261.8 912.6,258.9 916.7,257 Z M252.3,243.6 C257.7,242.3 264.4,240.9 267.2,240.5 270,240.2 272.3,239.5 272.3,239.1 272.3,236.9 262.9,219.3 261.5,218.8 260.4,218.4 258.8,219.3 256.7,221.7 253.2,225.7 240.8,245.9 241.8,245.9 242.2,245.9 246.9,244.8 252.3,243.6 Z M305.6,218.1 C305.6,217.9 305,215.9 304.1,213.6 302.1,208 302.2,201.3 304.6,190.2 305.7,185.1 306.4,180.8 306.2,180.5 305.3,179.7 297.6,181.6 296.5,182.9 294.9,184.7 294.8,200.3 296.3,205.3 297.7,209.9 303.1,218.5 304.6,218.5 305.2,218.5 305.6,218.3 305.6,218.1 Z M712.2,193.8 C723.8,169.5 735,152.6 754.7,129.9 775.5,106 803.9,83.5 827.6,72.1 831.7,70.2 835,68.3 835,67.8 835,65.8 806.4,63 786.1,63 759.2,63 723.6,68.3 702.6,75.4 700.1,76.2 693.6,78.4 688.1,80.2 677.3,83.9 653,95.2 645.3,100.3 636.6,106 622.4,117.4 616.2,123.7 609.6,130.4 604.3,137.9 605.1,139.2 605.4,139.6 609.4,140.2 614,140.6 639,142.5 658.9,152.5 680.4,174.1 690.5,184.2 696.9,192.7 701.4,202.1 702.9,205.2 704.5,207.6 705,207.5 705.4,207.3 708.7,201.2 712.2,193.8 Z M857.7,67 C858,66.5 858.3,63.2 858.3,59.7 858.5,45.3 848.3,43.2 841.5,56.2 838.1,62.7 838.3,63.7 842.8,64.5 844.9,64.8 848.4,65.7 850.6,66.4 855.6,68 856.9,68.1 857.7,67 Z M751.3,993.3 C743,992.2 738,989.7 735.5,985.5 733.7,982.4 733.5,980.4 733.6,967.4 733.6,955.2 734.1,951 736.2,942.4 741.3,922.5 742.2,915.4 742.5,894.5 742.7,879.3 743.2,872.9 744.5,868.1 747.5,857.2 754.3,846.5 758.2,846.5 759.2,846.5 761,847.7 762.1,849.1 764.7,852.2 769.6,864.3 772.4,874.6 773.6,878.8 774.9,882.6 775.4,883.1 775.8,883.6 778.2,884.3 780.5,884.7 784.7,885.4 785.1,885.3 789.8,881.3 795.9,876.2 809.5,868.3 813.6,867.5 818.4,866.5 819.8,868.3 819.8,875.3 819.8,879.7 818.8,883.8 816.1,891.1 814.1,896.4 812.4,902.2 812.4,903.8 812.4,905.4 813.4,912.2 814.6,918.9 816.3,928 818.2,934.2 821.9,942.7 824.7,949.1 827.9,958.2 829,963 831,971.3 831,971.9 829.4,977.4 827.5,983.8 825.1,986.7 819.3,989.7 815.7,991.5 813,991.8 791.5,992.4 778.5,992.8 765.5,993.3 762.7,993.6 760,993.9 754.8,993.7 751.3,993.3 Z M817.3,986.5 C820.8,984.6 823,982.5 824.7,979.5 828.9,971.9 827.7,965.6 816.5,936.5 814.5,931.3 812.4,923.4 811.8,918.9 811.1,914.3 810.1,908.5 809.6,906 808.7,902.2 808.8,901.1 810.1,899.8 813.2,896.8 818.6,875 817.3,870.9 816.9,869.9 816.1,869 815.5,869.1 812.4,869.1 789.5,883.8 789.5,885.7 789.5,886.2 791.5,887.4 793.9,888.5 800.3,891.2 800.6,892.7 794.3,890.6 791.4,889.6 786.1,888.3 782.5,887.6 778.9,887 775.2,886.1 774.3,885.6 773.3,885.1 771.4,880.9 769.8,876.2 765.7,863.4 761.2,852.1 759.5,850.5 758.3,849.2 757.9,849.3 756.1,851.4 752.7,855.7 749,864.1 747.5,871 746.7,874.9 745.9,885.4 745.7,896.1 745.4,914.9 745,917.7 739.8,940 736,955.9 734.8,977.4 737.3,982.1 741.5,990 743.2,990.3 780.4,989.7 780.4,989.7 812.2,989.2 812.2,989.2 812.2,989.2 817.3,986.5 817.3,986.5 Z M843.2,964.9 C843.2,963.6 843.4,963 843.7,963.7 844,964.4 844,965.5 843.7,966.1 843.4,966.8 843.2,966.3 843.2,964.9 Z M914.4,950.6 C914,949.8 913.8,948.3 913.8,947.2 913.8,944.7 911.9,944.9 909,947.6 909,947.6 906.5,949.8 906.5,949.8 906.5,949.8 907.3,947 907.3,947 908.2,943.2 906.2,942 902.5,944.1 899.1,946.1 897.3,944.9 900.4,942.8 901.7,942 902.7,940.9 902.7,940.4 902.7,938.6 899.5,938.3 897.7,939.9 896.6,940.8 895.5,941.2 895.2,940.7 894.9,940.2 895.5,939 896.6,938 900.2,934.8 899.2,933.3 894.1,934.1 888.7,934.8 888.1,933.5 893.1,931.8 897.6,930.2 897.9,927.1 893.6,925.7 892,925.1 890.4,924 890.1,923.3 889.5,921.6 889.7,921.6 893.1,923 895.2,924 895.9,923.9 896.7,922.8 898.1,920.6 897.8,919.2 895.6,918.7 894.5,918.4 893.6,917.7 893.6,917.1 893.6,916.4 894.5,916.2 896.2,916.6 899.9,917.5 901,915.3 898.5,912 897.5,910.5 896.6,908.9 896.6,908.3 896.6,906.3 898.3,907.1 899.4,909.6 900.1,911 901.3,912.1 902.2,912.1 903.5,912.1 903.7,911.3 903.1,907.7 902.3,902.7 904.1,901.4 905.2,906.2 906,909.8 908.7,910.2 908.7,906.7 908.7,905.4 909.2,904.3 909.7,904.3 910.3,904.3 910.7,904.9 910.7,905.7 910.7,906.5 911.5,907.2 912.4,907.2 913.5,907.2 913.8,906.7 913.3,905.5 912.2,902.9 912.2,901.9 913.3,901.3 913.8,901.1 914.7,902.3 915.2,904 916.3,907.5 918.8,908.4 918.8,905.3 918.8,904.3 919.3,903.1 919.8,902.8 920.4,902.4 920.8,903.4 920.8,905.2 920.8,909 923.1,909.1 926.4,905.5 927.9,903.8 928.9,903.3 928.9,904.2 928.9,905 928.2,906.4 927.2,907.4 925.9,908.8 925.8,909.5 926.7,910.3 927.6,911.2 928.3,911 929.8,909.7 932.8,907.1 934.5,908.2 932,911.1 929,914.5 931,915.8 935,913.1 939.2,910.1 940.1,911.3 936.2,914.9 932.6,918.1 932.9,919.1 937.1,918.3 938.9,917.9 940,918.1 940,918.7 940,919.3 939,919.9 937.8,920.1 934,920.6 934.8,922.4 939.6,923.6 945.1,925.1 944.7,926.8 939,926.1 935.4,925.6 935,925.7 935,927.6 935,929 935.6,929.7 936.9,929.7 937.9,929.7 939.4,930.4 940.2,931.3 941.4,932.8 941.2,932.9 937.9,932.3 934.9,931.7 934.1,931.9 933.5,933.3 933.1,934.3 933.4,935.4 934.3,936 939.9,939.8 939.7,939.6 937,939.2 935.6,938.9 933.7,938.4 932.7,938 930.5,937.1 930.3,939.2 932.5,941.5 933.4,942.5 933.7,943.4 933.1,943.8 932.6,944.1 931.6,943.7 930.9,942.9 928.5,940.1 926.7,941.1 927.5,944.9 928.2,948.7 926.9,949.5 925.4,946.1 924,942.9 922.3,944.3 922.7,948.2 923,951.2 922.8,951.4 921.4,950.3 920.5,949.6 919.8,948.2 919.8,947.2 919.8,946.2 919.1,945.4 918.3,945.4 917.3,945.4 916.8,946.3 916.8,948.2 916.8,951.5 915.3,953 914.4,950.6 Z M929.1,933 C934.2,928.5 928,921.6 921.8,924.8 919.2,926.2 919.1,932.1 921.6,933.5 924.2,935 927,934.8 929.1,933 Z M909.9,928.1 C913.7,924.8 910.9,918 905.8,918 903.4,918 900.6,921 900.6,923.7 900.6,928.8 906.1,931.4 909.9,928.1 Z M870.3,910.7 C870.3,905.9 867.6,905.1 866,909.4 865,912.1 863.4,911.4 863.6,908.5 863.7,906.6 863.2,905.7 862,905.5 861,905.3 860.2,905.7 860.2,906.5 860.2,907.2 859.5,908.7 858.7,909.7 857.2,911.5 857.1,911.3 857.7,907 858,904.4 858,902.3 857.7,902.3 857.3,902.3 855.9,903.2 854.5,904.3 851.1,906.8 849.4,905.7 852.2,902.7 855.4,899.5 854.2,897.4 849.1,897.4 846.2,897.4 845.1,897 845.1,896 845.1,895 846.1,894.5 848.2,894.5 850.6,894.5 851.2,894.1 850.9,892.8 850.6,891.5 849.7,891.1 847.3,891.3 843.2,891.6 843.1,889.8 847.1,888.5 851,887.1 850.9,885.4 846.9,883.7 843,881.9 841.6,879.2 845.2,880.4 846.5,880.8 848.5,881.2 849.6,881.2 851.7,881.3 851.7,881 850.6,875.4 850.1,872.8 850.1,872.6 851.4,874.2 854.1,877.3 855.3,876.2 855,871.2 854.6,866.1 856.4,864 857.2,868.6 857.5,870.2 858.1,871.4 858.5,871.2 858.9,871.1 859.7,871 860.3,871 861,871 861.3,869.8 861,868.1 860.6,865 861.9,864 862.9,866.6 863.9,869 866.1,868.3 866.5,865.4 866.9,862.7 867.3,863.1 868.8,867.6 869.7,870.4 872.3,868 872.3,864.3 872.3,859.8 874.5,861.5 874.7,866.2 874.8,868.1 875.2,869.4 875.6,869.3 876,869.2 876.8,869 877.3,869 877.8,869 878.4,868.2 878.7,867.1 879,866 879.7,865.1 880.3,865.1 881.7,865.1 881.7,867.1 880.5,869 879.9,869.9 879.9,870.9 880.6,871.7 881.4,872.7 882.3,872.5 884.6,870.9 888.2,868.4 889.8,869.2 886.5,871.8 883.5,874.1 884.3,877.6 887.4,875.9 888.5,875.4 890.2,874.9 891.2,875 892.7,875 892.6,875.4 890.3,877.2 886.1,880.5 886.6,882.2 891.5,881.4 896.6,880.6 896.7,881.8 891.9,884.1 888.5,885.6 888.1,887 890.9,887.2 891.5,887.3 892.8,887.4 893.8,887.5 897.1,887.8 895.6,889.6 892,889.6 887.6,889.6 887.4,891.5 891.5,893.8 893.2,894.8 894.6,896 894.6,896.5 894.6,897.7 894,897.7 890.5,896 886.9,894.1 885.8,895.5 888.1,898.9 889,900.2 889.3,901.3 888.7,901.3 888.1,901.3 887.3,900.9 887,900.4 886.1,898.9 884.5,899.2 883.8,900.8 883.5,901.7 884.2,903.1 885.6,904.2 889.1,906.9 887.1,908 883.4,905.4 879.9,902.9 878.4,903.3 878.4,906.9 878.4,909.3 878.3,909.4 876.6,907.8 873.6,905.2 872.3,905.9 872.3,910.1 872.3,912.3 871.9,914 871.3,914 870.8,914 870.3,912.5 870.3,910.7 Z M861.4,893.8 C865.1,890.6 862.6,883.7 857.6,883.7 856.3,883.7 854.6,884.7 853.7,885.9 851.7,888.7 851.7,889.8 853.9,889.2 856.7,888.4 858.5,890 858,892.9 857.4,895.8 858.7,896.2 861.4,893.8 Z M881.5,889.5 C882,888.6 882.5,886.9 882.5,885.7 882.5,883.4 879.1,879.8 876.9,879.8 876.1,879.8 874.5,880.7 873.4,881.8 871,884.1 870.6,887.1 872.9,886.3 875.5,885.3 877.4,886.7 877.4,889.7 877.4,891.8 877.8,892.3 878.9,891.9 879.8,891.6 880.9,890.5 881.5,889.5 Z M956.8,853.6 C956.8,853.6 954.9,850 954.9,850 954.9,850 953.7,853.3 953.7,853.3 953,855.3 952.2,856.2 951.8,855.6 951.4,855 951.4,853.9 951.8,853 952.1,852 951.7,851.2 950.6,850.8 949.3,850.3 948,851.1 945.9,853.5 943.1,856.6 942.9,856.7 943.4,854.4 943.6,853 944,851.3 944.2,850.5 944.8,848.1 941.1,848.2 939,850.6 937.4,852.6 937.1,852.6 937,851.2 937,850.2 937.6,848.6 938.2,847.5 940.2,844.5 937.7,842.8 935.3,845.5 934.3,846.6 933.2,847.5 932.7,847.5 931.4,847.5 931.9,844.9 933.5,843.6 935.8,841.7 935.5,839.4 933,840.6 932,841.2 930,841.6 928.7,841.6 926.5,841.5 926.5,841.5 928.3,840.4 929.3,839.7 931.1,838.5 932.3,837.6 934.4,836.1 934.3,836 930.2,834 924.9,831.3 923.4,829.3 927.5,830.3 932.3,831.5 932.5,831.5 932.5,829.5 932.5,828.3 931.6,827.4 930.1,827 926.9,826.3 927.8,824.5 931.2,824.8 932.7,824.9 934,824.6 934,824 934,823.4 932.7,821.9 931.2,820.7 927.7,817.7 928.7,816.6 932.8,818.9 936.3,820.8 938,820 936.2,817.2 935.5,816.1 935,814.5 935,813.5 935,812.2 935.5,812.4 937.1,814.5 938.9,816.8 939.4,817 941.1,816 943.5,814.5 943.5,813.9 941.5,811.9 940.6,811 940.1,809.8 940.3,809.1 940.5,808.4 941.7,808.9 943.4,810.6 944.9,812.1 946.6,813.3 947.1,813.3 948.8,813.3 949.2,811.4 948.1,809.3 947.4,808 947.3,806.9 947.8,806.3 948.4,805.8 949.5,806.8 950.7,808.9 951.7,810.8 952.9,812.3 953.3,812.3 953.8,812.3 954.4,810.8 954.7,808.9 955.7,804.2 957.2,804.6 957.2,809.6 957.2,809.6 957.2,813.7 957.2,813.7 957.2,813.7 960.7,810.4 960.7,810.4 963.2,808.1 964.3,807.5 964.3,808.6 964.3,809.4 963.6,810.7 962.8,811.3 960.3,813.3 960.8,815.6 963.5,814.8 964.8,814.4 966.9,813.9 968.3,813.6 970.7,813.2 970.8,813.2 968.9,814.7 967.9,815.5 966.5,816.3 965.9,816.6 965.1,816.8 965.1,817.3 966,818.2 967,819.3 967.7,819.3 969.8,818.2 973.3,816.4 974.2,817.7 971.5,820.5 968.9,823.2 969.6,824.3 973,823 976.2,821.8 977.4,821.9 977.4,823.1 977.4,823.6 976.3,824.5 975,825 971.7,826.2 970.7,828 973.2,828 975.9,828 978.4,829 978.4,830 978.4,830.5 977.1,830.9 975.4,830.9 971.9,830.9 971.4,832.3 974.4,833.8 977.2,835.3 976.9,836.9 973.9,836.2 970.8,835.5 970.6,836.8 973.3,839.2 976,841.5 974.9,843 971.9,841.1 969.8,839.8 969.5,839.8 968.9,841.3 968.5,842.3 969.1,843.9 970.6,845.4 970.6,845.4 972.9,847.8 972.9,847.8 972.9,847.8 970.3,847.1 970.3,847.1 965.4,845.7 964.8,845.9 965,848.7 965.2,851.7 963.9,852.3 962.5,849.9 961.2,847.8 957.9,849.2 958.6,851.6 959,852.6 959.5,854.3 959.8,855.4 960.9,858.7 958.7,857.5 956.8,853.6 Z M946.9,836.5 C949.1,833.9 948.7,832.5 945.6,832.4 942.9,832.4 942.5,832 942.5,829.4 942.4,826.2 940.5,825.9 938.3,828.7 936.5,830.9 936.7,833.8 938.7,836 940.6,838 945.3,838.3 946.9,836.5 Z M966.7,835.2 C969,833 968.7,832 965.5,831.7 963.4,831.5 962.7,830.8 962.4,828.7 962.3,827.2 961.7,826 961.3,826 959.5,826 957.2,829.1 957.2,831.4 957.2,832.7 957.9,834.4 958.8,835.2 959.7,836.1 961.5,836.8 962.8,836.8 964.1,836.8 965.9,836.1 966.7,835.2 Z M781.5,797.9 C781.4,794.3 780,793.7 778.4,796.7 777.8,797.7 776.6,798.6 775.8,798.6 774.5,798.6 774.6,798.2 776,796.1 777.5,793.9 777.5,793.4 776.3,792.7 775.3,792 774.5,792.4 773.5,793.7 771.7,796.2 769.9,796.3 771.3,793.8 773.7,789.4 771.7,787.3 768.1,790.5 765.5,792.8 764.9,791.5 767.3,788.6 770,785.2 769.8,784.6 766.3,785.3 762.9,785.9 762.1,784.4 765.3,783.4 767.5,782.8 767.4,780.3 765.2,780.8 764.5,781 763.2,780.8 762.3,780.4 761.1,779.9 761.5,779.6 763.7,779.1 765.3,778.8 766.8,777.9 767.1,777.2 767.4,776.2 766.9,776 765,776.3 761.9,776.9 762.3,774.6 765.3,773.9 766.4,773.6 767.3,772.6 767.3,771.8 767.3,770.4 766.6,770.3 763.5,770.8 760.1,771.5 759.8,771.4 761.1,769.9 761.9,769 763.3,768.3 764.3,768.3 765.3,768.3 766.4,767.8 766.8,767.3 767.1,766.8 766.7,766.3 765.8,766.3 764.9,766.3 764.4,765.9 764.8,765.3 765.1,764.8 766.5,764.6 767.7,764.9 770.7,765.7 772,763.9 769.9,761.9 769,761 768.3,759.6 768.3,758.8 768.3,757.5 768.8,757.6 770.8,759.4 773.7,762.1 776.4,761.2 773.8,758.4 771.4,755.9 772.7,754.9 775.8,756.9 779.3,759.1 779.7,758.9 778.9,755.6 778.1,752.2 779.8,751.6 781.5,754.7 783,757.5 784,756.5 784.3,751.7 784.6,748 786.4,749.7 786.7,753.9 786.7,753.9 787.1,758 787.1,758 787.1,758 788.4,754.7 788.4,754.7 789.8,751.3 791.8,752.1 790.8,755.7 790.2,757.9 792.1,758.2 792.9,756.1 793.2,755.3 794,754.6 794.6,754.6 795.3,754.6 795.5,755.3 795.2,756.1 794.1,758.9 795.6,759.6 798.6,757.5 803.6,754.1 805.4,755.2 800.9,759 797.7,761.6 798.4,763.3 802.1,761.6 805,760.4 805.6,761.8 802.9,763.3 801.5,764 801.4,764.5 802.3,765.4 803.3,766.4 804.1,766.3 806.2,764.9 809.9,762.6 810.8,764 807.4,766.9 803.4,770.3 803.9,771.5 809,770.8 813,770.2 813.1,770.3 811.3,771.7 810.2,772.5 808.6,773.2 807.8,773.2 806.9,773.2 807.8,774 809.7,774.9 809.7,774.9 813.3,776.5 813.3,776.5 813.3,776.5 809.5,776.9 809.5,776.9 806,777.2 803.9,779 807.1,779 807.8,779 809.1,779.8 809.8,780.7 811.1,782.2 810.9,782.3 808,781.7 804.1,780.9 803.5,782.6 806.8,785.3 809.3,787.4 808.7,788.4 805.7,786.9 802.6,785.3 801.1,786.7 803.3,789.1 805.1,791.1 805.1,791.1 802.3,790.4 802.3,790.4 799.4,789.7 799.4,789.7 799.4,789.7 801.4,792.9 801.4,792.9 802.5,794.7 803.2,796.8 802.9,797.5 802.6,798.3 801.8,797.7 800.5,795.8 798,791.7 795.1,791.6 795.9,795.7 796.6,799 795.2,799.6 793.6,796.7 793,795.6 791.8,794.7 790.9,794.7 789.6,794.7 789.4,795.4 789.9,797.7 790.6,801.2 788.6,801.3 787,797.8 786,795.7 784.5,794.9 784.5,796.5 784.5,796.9 783.8,798.1 783,799.2 781.6,801 781.5,800.9 781.5,797.9 Z M781.4,781.1 C782.9,778.3 782.7,776.3 780.5,774.3 777,770.8 769.2,775 770.9,779.4 771.5,780.8 771.7,780.7 773.2,779 775.3,776.4 778.4,777.4 778.4,780.6 778.4,783.4 780,783.7 781.4,781.1 Z M799.8,773.7 C800.7,771.8 800.7,770.7 799.6,768.7 796.8,763.7 787.2,767.7 789.3,773 789.8,774.2 790,774.2 791.1,772.7 792.8,770.5 796,771.2 796.4,773.9 796.8,776.8 798.4,776.7 799.8,773.7 Z M848.1,699.5 C848.1,695.6 846.3,694.7 844.1,697.4 842.1,699.7 841,699.1 842.3,696.3 843.2,694.3 843.2,693.6 842,692.9 840.9,692.2 839.9,692.7 838.3,694.6 835.7,697.8 834,697 836.4,693.8 837.3,692.6 838,690.8 838,689.8 838,688 835.5,687.4 834.5,689 833.7,690.2 830.9,690.4 830.9,689.2 830.9,688.8 832.1,687.9 833.5,687.2 836.8,685.8 836.2,683.8 832.4,683.2 829,682.6 828.8,680.7 832.1,680.7 833.3,680.7 834.5,680.2 834.7,679.6 835.1,678.5 834.4,677.7 830.4,674.8 828.5,673.3 828.6,673.3 831.7,673.8 835.4,674.4 835.6,673.8 833.3,669 832.3,667.1 831.9,665.3 832.3,664.9 833,664.2 834.4,665.6 835.3,668 835.6,668.6 836.8,668 838.1,666.8 838.1,666.8 840.4,664.6 840.4,664.6 840.4,664.6 837.5,661.7 837.5,661.7 833.8,657.9 835.1,656.5 838.9,660.1 842.7,663.6 844.4,662.7 843.5,657.5 843,654.4 843.1,653.7 844.2,654 845,654.3 845.7,655.3 845.9,656.4 846.7,660.4 851.1,660.2 851.1,656.1 851.1,653 853.4,653.6 854.2,656.8 854.9,659.2 854.9,659.2 856.8,656 859.1,652.2 860.7,651.9 859.8,655.3 858.9,658.9 860,660.2 862.3,658.1 864.2,656.5 864.3,656.6 864.3,659 864.3,662.4 866.1,663.3 868,660.8 870.1,657.8 871.9,659.3 869.8,662.3 867.8,665.3 868.6,666.5 872.7,666.6 872.7,666.6 875.9,666.6 875.9,666.6 875.9,666.6 873.4,668.5 873.4,668.5 870.7,670.5 871.1,670.9 876.4,671.7 879,672.1 878.6,672.4 873.8,673.9 871.5,674.6 873,676.3 875.9,676.3 879.3,676.3 879.1,678.1 875.6,678.5 872.4,678.8 872.2,680.3 875.2,681.8 877.8,683 877,684.2 873.7,684.2 871.1,684.2 870.5,686.6 872.9,687.4 873.7,687.8 874.4,688.7 874.4,689.5 874.4,691.3 873.2,691.4 871.6,689.8 869.8,688.1 868.7,689.8 870.2,692.1 872,694.9 870.8,695.6 868.2,693.4 868.2,693.4 866,691.5 866,691.5 866,691.5 866.6,694.6 866.6,694.6 867.1,697.1 866.9,697.7 865.7,697.2 864.9,696.9 864.3,696.3 864.3,695.8 864.3,694.4 861.2,694.8 860.6,696.3 860.3,697.1 860.6,698.6 861.2,699.7 862.8,702.7 860.7,702.3 858.6,699.3 857.7,698 856.6,696.9 856.1,696.9 855.6,696.9 855.2,698 855.2,699.3 855.2,702.4 853.4,702.6 853,699.6 852.6,696.8 850.8,696.7 850.3,699.3 849.6,703.1 848.1,703.2 848.1,699.5 Z M868.7,681 C870.1,678.8 868.6,674.4 866,673.5 863,672.4 862,673.1 863.4,675.3 865.1,677.9 863.8,680.2 860.5,680.3 860.5,680.3 857.7,680.3 857.7,680.3 857.7,680.3 860.6,682.8 860.6,682.8 863.2,685 863.7,685.1 865.6,683.9 866.7,683.1 868.1,681.9 868.7,681 Z M847.9,680 C849.7,678.3 849.4,677.5 846.9,677.1 844.1,676.8 843.4,674.2 845.5,672.1 846.9,670.8 846.9,670.6 845.4,670 842.7,669 839,672.1 839,675.3 839,680.2 844.7,683.2 847.9,680 Z M813.3,526.4 C813.8,523.5 813.7,522.7 812.5,522.7 811.7,522.7 810.5,523.8 809.9,525.2 808.6,528 806,528.6 807.2,525.9 808.9,521.9 808.9,521 807,520.6 806,520.4 804.4,521.1 803.5,522.2 801.3,524.8 800.2,523.7 801.8,520.4 803.4,516.8 801.5,514.8 798.8,517.2 795.8,519.8 795.2,519.1 797.5,515.5 797.5,515.5 799.7,512.1 799.7,512.1 799.7,512.1 796.1,510.9 796.1,510.9 794.2,510.2 792.5,509 792.5,508.3 792.5,507.3 793,507.3 794.5,508 796.7,509.2 797.9,508.1 797,505.7 796.6,504.9 795.3,504.2 793.9,504.2 792.5,504.2 791.7,503.7 792,503.2 792.4,502.6 793.5,502.2 794.6,502.2 797.6,502.2 798,500.3 795.5,497.7 794.2,496.4 793.5,495 793.9,494.7 794.3,494.3 795.1,494.5 795.5,495.3 796.6,497 799.6,495.9 799.6,493.7 799.6,492.8 798.6,491 797.4,489.8 794.5,486.8 795.6,486 799,488.6 802.3,491.1 804.5,490 802.7,486.7 802,485.3 801.9,484.5 802.7,484.1 803.3,483.7 804,484.4 804.4,485.5 805.3,488.9 807.2,487.2 806.9,483.3 806.5,478.9 807.4,478.6 808.9,482.6 810.3,486.6 812.1,486.4 811.3,482.4 811.3,482.4 810.6,479.2 810.6,479.2 810.6,479.2 812.6,481.4 812.6,481.4 815.1,484.1 816.4,484.2 817.1,481.7 817.4,480.6 818.2,479.7 818.8,479.7 819.6,479.7 819.8,480.6 819.4,482.1 818.9,484 819.2,484.6 820.3,484.6 821.2,484.6 822.3,483.5 822.9,482.1 823.4,480.8 824.3,479.7 824.8,479.7 826.1,479.7 826.1,479.9 824.9,483 823.7,486.1 824.7,487 827.2,484.8 829.2,483.2 829.2,483.2 828.6,485.8 827.7,489.1 829.2,490 832.4,487.9 835.2,486.2 836,487.5 833.5,489.5 830.7,491.7 831.7,493.4 835.7,493.5 839.2,493.5 839.3,493.6 837.2,494.6 834.3,496 834.3,497.3 837.4,497.3 838.8,497.3 840.7,497.6 841.7,498 843.1,498.6 842.6,498.9 839.6,499.3 834.4,499.9 833.5,502.2 838.4,502.2 842.8,502.2 843.2,504 839,504.8 834.7,505.6 834.5,506.6 838,509 841.3,511.3 842.2,513.6 839.3,512.5 834,510.4 833.7,510.6 836.4,514.4 837.8,516.4 838.7,518.5 838.4,519.1 838,519.6 836.8,518.7 835.8,517 834.7,515.3 833.4,513.9 832.9,513.9 831.6,513.9 831.7,516.6 833,518.9 833.8,520.4 833.7,520.8 832.6,520.8 831.8,520.8 830.9,520.3 830.7,519.6 830.5,519 829.6,518.8 828.6,519.1 827,519.7 826.9,520 828.4,522.7 830.2,526.1 829.1,526.6 826.4,523.7 823.9,521 821.8,521.3 821.8,524.2 821.8,527.1 820.2,527.5 819.3,524.7 818.4,522 817,522.2 816.2,525.2 815.9,526.5 814.9,528.1 814.1,528.8 812.8,529.8 812.7,529.5 813.3,526.4 Z M813.5,515.4 C817.6,512.6 816,506.1 811,504.7 809.3,504.2 808.7,504.4 808.7,505.6 808.7,506.4 809.2,507.1 809.7,507.1 810.3,507.1 810.7,508.1 810.7,509.4 810.7,511.9 808.7,513.3 806.2,512.3 805.3,512 804.7,512.2 804.7,512.8 804.7,514 808.6,516.9 810.2,516.9 810.8,516.9 812.3,516.2 813.5,515.4 Z M823.9,498.3 C825,497.2 825.9,495.5 825.9,494.4 825.9,492.1 822.1,488.5 819.6,488.5 817.4,488.5 817.3,489.8 819.3,491.4 821.2,493 821.2,493.9 819.3,495.7 818.4,496.5 816.9,496.9 815.5,496.6 813.3,496 813.3,496 815.2,498.1 817.6,500.8 821.2,500.8 823.9,498.3 Z M968.4,385.5 C968.3,385 968.8,383.8 969.4,382.7 970.8,380.2 968.9,378.6 966.2,380 963.7,381.3 963.4,381.1 964,378.9 964.8,376 962.7,376.6 959.8,380.2 957.5,383 957.2,383.1 957.2,381.3 957.2,380.1 957.9,378.6 958.7,378 960.9,376.2 960.6,375 958,375 956.3,375 956.1,374.8 957,373.9 959.8,371.2 958.1,370.8 952.4,372.8 951.7,373.1 951.1,372.8 951.1,372.2 951.1,371.6 952.3,370.6 953.7,370.1 957.3,368.8 957.1,365.8 953.4,366.6 953.4,366.6 950.6,367.2 950.6,367.2 950.6,367.2 952.9,365.3 952.9,365.3 956.7,362.2 955.8,361 950.4,361.8 946,362.4 945.8,362.3 947.6,361 948.8,360.2 950.8,359.4 952.1,359.2 955.6,358.7 956,356.4 952.6,356.4 950.4,356.4 950.1,356.2 951.1,355.1 951.7,354.3 953.1,353.9 954.2,354.2 957,354.9 956.8,352.2 953.9,350.3 952.7,349.5 952,348.5 952.4,348.1 952.8,347.7 954.2,348.1 955.6,348.9 957.6,350.2 958.2,350.3 959.1,349.2 960,348.3 959.7,347.5 958.2,346.2 957.1,345.2 956.5,344 956.8,343.5 957.1,343 958.3,343.4 959.3,344.3 961.2,345.9 964.3,345.6 964.3,343.8 964.3,343.3 963.4,342.3 962.3,341.8 961.1,341.2 960.2,340.3 960.2,339.9 960.2,338.7 964,339.8 965.4,341.4 966,342.1 967.2,342.7 968,342.7 969.1,342.7 969.3,341.9 968.8,339.3 967.9,335.1 969.5,334.8 971,338.8 972.4,342.4 975.8,342.8 976.9,339.6 976.9,339.6 977.6,337.4 977.6,337.4 977.6,337.4 978.3,339.7 978.3,339.7 979.3,343.1 980.9,343.2 982.9,340.3 985,337.2 985.9,337.6 984.6,341 983.3,344.3 984.7,346.5 986.9,344.8 988.3,343.7 988.5,343.8 988.5,346 988.5,349 990.1,349.3 992.7,347 995.1,344.9 995.3,347.2 993,349.7 990.8,352.1 992,353.7 995.1,352.5 996.6,352 997.8,352 998.1,352.5 998.4,353 997.5,353.7 996.1,354.1 993.1,354.8 992.7,356.4 995.5,356.4 998.5,356.4 998.9,358.1 996.1,358.8 992.9,359.6 992.9,361.1 996.1,362.5 999.3,363.9 999.4,365.6 996.2,364.9 992.4,363.9 991.8,367 995.3,369.8 997.2,371.3 997.6,372 996.6,372.1 995.7,372.1 994.5,371.6 993.9,371 991.8,369 990.3,371.1 992,373.7 992.9,374.9 993.2,376 992.6,376 992.1,376 991.4,375.6 991,375 990.7,374.5 989.9,374 989.4,374 988.3,374 988.5,375.1 990,379.4 990.6,381.2 990.5,381.2 988.7,379.2 986.4,376.7 985.4,376.5 983.7,378.1 982.9,378.9 983,379.8 984.2,381.5 985.1,382.9 985.3,383.8 984.6,383.8 984,383.8 982.9,383 982.2,381.9 980.6,379.3 977.4,379.3 977.4,381.8 977.4,382.9 977,384 976.4,384.3 975.8,384.7 975.4,384 975.4,383 975.4,380.8 973.2,379 972.6,380.7 972,382.3 968.4,386.4 968.4,385.5 Z M968.5,365.6 C970.8,363.6 970.8,361.5 968.8,358.6 967.8,357.3 966.2,356.5 964.5,356.5 962,356.5 961.9,356.6 963.5,357.8 964.5,358.5 965.3,359.8 965.3,360.7 965.3,362.9 962.6,363.8 960.7,362.3 958.4,360.4 957.7,361.9 959.6,364.7 961.6,367.6 965.7,368 968.5,365.6 Z M934,345.9 C934,342 931.5,341.7 930.1,345.4 930.1,345.4 929.1,348.1 929.1,348.1 929.1,348.1 929,344.9 929,344.9 928.9,342.6 928.5,341.8 927.1,341.8 926,341.8 924.5,343.1 923.5,344.9 923.5,344.9 921.8,348.1 921.8,348.1 921.8,348.1 922.4,343.9 922.4,343.9 922.4,343.9 922.9,339.6 922.9,339.6 922.9,339.6 919.6,340.3 919.6,340.3 919.6,340.3 916.3,341 916.3,341 916.3,341 918.2,339 918.2,339 919.7,337.4 919.8,336.8 918.7,336.8 916.7,336.6 916.6,336.6 912.9,337.4 910.3,337.9 909.6,337.8 909.9,336.8 910.2,336 911.5,335.2 912.8,334.9 916,334.2 916,331.6 912.8,331.2 909.1,330.7 907.7,329 911,329 912.8,329 913.8,328.5 913.8,327.6 913.8,326.6 912.8,326.1 910.7,326.1 909.1,326.1 907.7,325.7 907.7,325.3 907.7,324.8 909.1,324.1 910.7,323.8 914.7,323 914.6,321.2 910.2,318.5 908.3,317.3 906.7,315.9 906.7,315.3 906.7,313.9 907.9,314.2 910.7,316.3 913.9,318.7 914.4,318.7 915.2,316.6 915.7,315.5 915.1,314.3 913.6,313.1 913.6,313.1 911.2,311.3 911.2,311.3 911.2,311.3 914.5,312 914.5,312 918.5,312.7 919,310.9 915.3,309.5 913.9,309 912.8,308.1 912.8,307.4 912.8,306.8 913.5,306.6 914.5,307 915.5,307.4 917.6,307.9 919.2,308.2 922,308.8 922.1,308.7 921.4,305.5 920.8,302.5 920.9,302.3 922.2,303.9 924.5,306.6 925.9,305.9 925.3,302.4 925.3,302.4 924.8,299.2 924.8,299.2 924.8,299.2 926.4,302 926.4,302 928.2,305.1 930.3,305 930.8,301.8 931.2,299 933,299.1 932.7,301.9 932.4,304.7 935.6,305.4 936.5,302.7 937.5,299.7 940.2,300.1 939.4,303.1 939,305 939.2,305.6 940.5,305.6 941.4,305.6 942.5,304.5 943.1,303.1 944.4,299.6 945.4,300.1 944.8,304 944.1,308.4 944.9,309 947.8,306.4 949.5,304.8 950.1,304.6 950.1,305.7 950.1,306.5 949.6,307.6 949,308.2 947.2,310 948.8,312.7 951.1,311.9 954.3,311 955.7,312.4 953.2,314 950.6,315.8 950.5,317.3 953.1,317.3 956,317.3 956.5,318.9 953.9,319.7 951.8,320.4 951.7,320.5 953.7,320.9 957.2,321.8 957.7,323.1 954.8,324.1 951,325.5 951.5,326.7 956.2,327.5 958.4,327.8 960.2,328.6 960.2,329.1 960.2,329.8 958.8,330 956.2,329.5 953.5,329.1 952.2,329.2 952.2,330 952.2,330.6 952.8,331.3 953.6,331.6 954.4,331.9 955.3,332.8 955.6,333.6 956,334.7 955.8,334.8 954.1,333.9 951.6,332.6 949.1,333.3 949.1,335.3 949.1,336 948.2,336.9 947,337.2 945.1,337.7 944.9,338.2 945.5,340.9 946.1,343.9 946,344 944.3,342.4 941.6,340.1 940.9,340.4 941.1,343.5 941.4,348.4 940.9,349.1 939.7,345.7 938.3,341.6 936.9,341.7 935.3,345.9 935.3,345.9 934.1,349.1 934.1,349.1 934.1,349.1 934,345.9 934,345.9 Z M940,330.8 C941.6,329.8 942.5,329.8 944,330.7 945.7,331.8 946.1,331.6 946.6,330 947,328.8 946.6,327 945.6,325.5 943.3,322.1 938,322.5 936.6,326.2 935.7,328.7 936.3,332 937.5,332 937.8,332 938.9,331.4 940,330.8 Z M924.8,318.8 C925.4,318.5 926.7,318.7 927.8,319.2 930.4,320.6 931.3,319.1 929.8,315.9 927.3,310.6 919.8,312.4 919.8,318.2 919.8,321.8 922,323.9 923,321.3 923.4,320.3 924.2,319.2 924.8,318.8 Z M726.7,315.9 C726.3,312.2 723.2,311.3 722,314.5 722,314.5 721.2,316.7 721.2,316.7 721.2,316.7 720.6,314.6 720.6,314.6 719.7,311.2 717,310.9 714.4,313.8 711.4,317.2 710.3,317 712.3,313.3 714.6,309 712.7,307.3 709.2,310.5 706.3,313.1 705.6,311.3 708.4,308.3 710.4,306.1 709.6,305.1 706.8,306.5 703.5,308.2 701.9,307.6 704.5,305.5 707.8,302.9 706.7,300.7 702.2,300.7 700.3,300.7 698.4,300.2 698.1,299.7 697.7,299.1 698.9,298.7 701,298.7 704.9,298.7 706,297.8 705.1,295.4 704.7,294.5 703.3,293.8 701.5,293.8 697.6,293.8 697.8,292.5 701.9,291.3 703.8,290.8 705.3,289.7 705.5,288.6 705.8,287.1 705.5,286.8 703.8,287.3 702.6,287.7 700.6,288.3 699.5,288.6 695.7,289.7 698.4,287 703,285.1 703,285.1 707.2,283.3 707.2,283.3 707.2,283.3 704.4,282.1 704.4,282.1 702.9,281.4 701.6,280.2 701.6,279.4 701.6,278.6 702,278.2 702.4,278.4 702.8,278.6 704.4,279.3 705.9,280.1 709.7,281.9 710.4,280.9 708.2,276.2 705.8,271.1 707,270 709.8,274.7 711.8,278 712.2,278.2 713.6,276.8 714.8,275.6 714.9,275 714,274.1 713.3,273.4 712.7,272 712.8,270.9 712.8,269.2 713.1,269.4 714.9,272.1 717.2,275.6 719.4,276.3 718.4,273.3 718.1,272.2 717.5,270.5 717.2,269.4 716.2,266.3 718.4,267.1 719.8,270.4 721.5,274.3 722.8,274.1 722.8,269.9 722.8,268 723.3,266.4 723.9,266.4 724.4,266.4 724.9,268.2 724.9,270.4 724.9,273.5 725.2,274.3 726.8,274.3 727.9,274.3 729.6,272.8 730.9,270.7 732.1,268.8 733.3,267.4 733.6,267.8 734,268.1 733.5,269.4 732.6,270.8 730.5,273.8 730.5,275.2 732.4,275.2 733.3,275.2 734,275.7 734,276.2 734,277.7 736.1,277.4 738.2,275.6 739.7,274.2 740,274.2 740,275.4 740,276.2 739.5,277.3 738.8,278 737.9,278.9 737.9,279.4 738.8,280.4 739.8,281.3 740.7,281.3 743.1,279.9 745.3,278.7 746.1,278.6 746.1,279.5 746.1,280.2 745,281.4 743.6,282.1 740.4,283.7 741.4,286 745.4,286 745.4,286 748.6,286.1 748.6,286.1 748.6,286.1 745.8,287.6 745.8,287.6 742.3,289.4 742.7,291.3 746.7,291.7 749.9,292.1 752.5,293.8 750.1,293.9 749.3,294 747.7,294.1 746.7,294.2 743.5,294.4 743.8,296.3 747.3,298.1 747.3,298.1 750.6,299.8 750.6,299.8 750.6,299.8 746.9,299.3 746.9,299.3 743,298.8 740.8,300.9 743,303 744.6,304.6 744.3,305.4 742.2,304.9 739.5,304.2 737.6,306.9 738.9,309.4 740.7,312.6 740.1,314.1 738,311.6 738,311.6 736,309.3 736,309.3 736,309.3 736,312.3 736,312.3 736,314 735.5,315.4 735,315.4 734.4,315.4 734,314.5 734,313.4 734,310.9 730.1,310.7 729.3,313.2 729,314.1 728.4,315.7 727.9,316.8 727.2,318.5 727.1,318.4 726.7,315.9 Z M718,298.5 C720.9,296.4 721.3,292.3 718.9,290 717.7,288.9 715.9,288 714.8,288 709.9,288 707.8,295.4 712,298.2 714.7,300 715.9,300.1 718,298.5 Z M736.8,292.3 C741.1,289.4 738.6,283.1 733.1,283.1 729.8,283.1 727.9,285.2 727.9,288.8 727.9,290.7 731.3,293.8 733.5,293.8 734,293.8 735.5,293.1 736.8,292.3 Z M308.2,437.7 C307.4,436.4 310.6,434.5 319.8,430.6 325.9,428.1 328.7,427.5 334.4,427.4 342.9,427.4 349.7,429.1 353.7,432.4 357,435.2 357.5,435.2 346.6,432.1 343.8,431.4 338.4,430.7 334.7,430.7 328.8,430.7 326.6,431.2 318.9,434.6 309.1,439 309.1,439 308.2,437.7 Z M323.9,374 C318.8,371.7 308,368.1 299.2,365.8 294.5,364.5 293.6,363.9 294.5,362.9 296.6,360.4 308.7,358.9 327.4,358.9 354.6,358.9 358.8,360.5 346.8,366.3 343.3,368 337.9,370.9 334.8,372.7 331.7,374.5 328.9,376 328.7,376 328.5,376 326.3,375.1 323.9,374 Z M333.8,369.4 C336.5,367.4 340.3,364.9 342.1,363.8 342.1,363.8 345.5,361.9 345.5,361.9 345.5,361.9 338.5,361.3 338.5,361.3 330.4,360.7 307.4,361.7 305.6,362.8 304.9,363.2 306.6,364.2 309.8,365.3 312.8,366.3 318,368.4 321.3,370 324.6,371.6 327.7,373 328.1,373 328.6,373 331.1,371.4 333.8,369.4 Z M201.6,373.2 C193.7,370.9 190.3,368.9 185.7,363.8 174.9,352 175.3,327.8 186.5,316.7 193.1,310.3 199.4,307.4 208.5,306.8 225.5,305.7 240,312.7 246.3,325.1 249.4,331.2 250.1,345.8 247.5,352.4 243.3,363.3 235.3,370 222.6,373.2 213.9,375.4 209,375.4 201.6,373.2 Z M212.7,371.3 C212.7,370.9 211.8,368.8 210.7,366.7 205.9,357.5 209.5,346.9 218.9,342.4 221.8,341 225.4,339.8 226.8,339.8 230.6,339.8 239.3,344.1 241.8,347.1 243.8,349.6 244.1,349.7 244.7,348 245.9,345.2 245.6,335 244.2,330.4 242.5,324.5 239.1,320.3 232.9,316.1 218.4,306.3 200.5,307.8 189.6,319.9 180.5,329.9 179.9,349.8 188.4,361.1 192.4,366.4 195.4,368.3 203.5,370.3 211.2,372.2 212.7,372.4 212.7,371.3 Z M405.9,365.3 C399.3,363 395.5,360.4 391.8,355.7 377.9,338 383.5,311.9 403.1,302.7 408.3,300.2 420.9,298.3 426.7,299.1 435.5,300.3 446.9,308.4 451.3,316.8 456.7,326.9 457.8,340.9 453.7,349.1 450.8,355.2 444.4,361.5 438.1,364.4 431.5,367.6 413.7,368.1 405.9,365.3 Z M409.1,343.3 C414.1,336.9 423.3,335 431.3,338.8 435.9,341 440.6,347.1 441.6,352.2 442.4,356.3 443.3,356.3 446.4,352.3 452.8,344 454,338.2 451.6,328.5 446.9,309.6 431.1,299.8 412.4,304 402,306.4 395.3,311.2 390.7,319.8 388.3,324.1 388,325.8 388,334.4 388,343.4 388.2,344.6 390.7,348.6 393.9,353.7 397.8,357.5 402.1,359.7 402.1,359.7 405.1,361.2 405.1,361.2 405.1,361.2 405.6,354.1 405.6,354.1 406.1,348.2 406.7,346.3 409.1,343.3 Z M276.3,356.6 C276.3,354.7 284.7,347.8 289.7,345.4 299.2,340.9 300.3,341.5 292,346.5 287.6,349.2 282.6,352.7 281,354.4 278,357.4 276.3,358.2 276.3,356.6 Z M365.2,351.5 C363.9,351.1 361,350.7 358.9,350.7 354.8,350.6 354.5,348.6 358.6,348.6 361,348.6 368.3,351.2 368.3,352.1 368.3,352.3 368.2,352.5 368,352.4 367.9,352.4 366.6,352 365.2,351.5 Z M293.5,350.1 C296.6,346.5 317.6,339.3 319.5,341.2 319.8,341.5 319.4,341.9 318.7,342.1 310.9,344.4 300.5,348.2 297.9,349.7 294,352 291.7,352.2 293.5,350.1 Z M316.6,346.3 C319.1,343.4 342.3,339 340.5,341.8 340.1,342.3 338.7,342.7 337.3,342.7 336,342.7 330.8,343.8 325.8,345.2 315.4,348 315.1,348.1 316.6,346.3 Z M342.5,346.2 C345.8,344.7 357.2,344.1 355.6,345.6 355.1,346.1 351.2,346.7 347.1,347 339.9,347.6 339.7,347.5 342.5,346.2 Z M621.8,868.6 C616.9,865.3 612.9,864.7 606.3,866.4 603.2,867.1 600.4,867.5 600.1,867.3 596.2,863.5 609.5,850.5 617.2,850.5 622.9,850.5 633.3,864.5 631.3,869.6 630.4,871.7 625.8,871.2 621.8,868.6 Z M628.9,868 C628.9,866.6 624.9,859.1 623,857 622.1,856 620.1,854.5 618.6,853.8 616.3,852.7 615.5,852.7 612.7,854.1 608,856.3 601.2,863.1 602.4,864.3 603.1,865 604.2,864.9 605.7,864.1 607,863.5 610.1,862.9 612.7,862.9 616.4,862.8 618.4,863.5 621.9,865.8 626.6,869 628.9,869.7 628.9,868 Z M672.3,817.5 C669.9,816.6 667.2,814 665.5,810.9 663,806.2 665.2,799.1 671.1,792.8 675.4,788.1 676.4,787.6 681,787.1 685.4,786.7 686.5,787 689.1,789.2 693.4,792.6 694.9,798 693.4,804.6 692.1,811.1 689.4,815.5 685.9,817 683.3,818.2 675.1,818.5 672.3,817.5 Z M686.5,813.5 C690.7,810.3 692.9,799.7 690.3,794.2 688.4,790 679.1,786.5 681,790.5 682.9,794.9 682.7,797.8 680.3,800.2 677.9,802.7 676.3,802.8 670.7,801.1 668.4,800.4 667.3,802.4 667.3,807.5 667.3,814.8 679.3,818.6 686.5,813.5 Z M639.3,814.2 C635.4,813.4 632.9,811.6 632.9,809.6 632.9,807.6 640.4,808.6 643.1,810.9 646.6,813.9 644.9,815.4 639.3,814.2 Z M624.4,800.7 C620.4,799.9 617.5,794.7 618.3,789.8 619.4,783.9 624.4,777.5 630.2,774.7 633,773.3 636.4,772.2 637.7,772.2 640.5,772.2 643.8,775.2 644.6,778.4 645.7,782.6 642.3,791.4 637.7,796.1 633.3,800.6 630,801.7 624.4,800.7 Z M633.9,797.2 C637.8,795.2 642,786.8 642,781 642,777 641.7,776.3 639.4,775.3 635.9,773.7 634.8,774.7 635.5,778.6 636.1,781.3 635.7,782.3 633.5,784.5 630.8,787.1 628.1,787.3 623.7,785.5 620.7,784.2 619.6,793.8 622.5,796.8 624.5,799 629.9,799.2 633.9,797.2 Z M126.2,671.9 C124.4,667.5 130.2,648.8 136.1,640.1 141.1,632.5 144.5,631 157.1,630.9 171.9,630.9 187.4,636.3 188.3,641.9 188.9,645.9 184.6,648.5 173.7,650.9 159.3,654 153.6,656.4 145,663.1 134.3,671.5 131.4,673.4 128.9,673.4 127.7,673.4 126.5,672.7 126.2,671.9 Z M145.6,658.8 C154.5,652.8 157.9,651.4 170.8,648.6 182.5,645.9 185.7,644.6 185.2,642.3 184.4,638.1 170,634.3 155.2,634.3 147.9,634.3 145.9,634.6 143.8,636.2 138.9,639.9 126.9,665.6 128.3,669.2 128.7,670.3 129.9,669.9 133.7,667.1 136.3,665.1 141.7,661.4 145.6,658.8 Z M517.3,662.5 C516.2,661.8 512.6,659.4 509.5,657 499.1,649.4 488.3,645.9 470.4,644.4 460.9,643.7 458.6,642.5 459.5,639 461.5,631.4 474.6,625.6 493.6,623.9 502.7,623.1 505.7,624.3 511,630.6 515,635.2 521,646.4 522.8,652.4 524.5,658 523.9,663.1 521.3,663.4 520.2,663.5 518.4,663.1 517.3,662.5 Z M519.8,654.1 C517.5,646.9 512.2,637.7 507.5,632.9 507.5,632.9 502.8,627.9 502.8,627.9 502.8,627.9 493.9,627.9 493.9,627.9 483.3,628 472.8,630.8 466.4,635.2 459.8,639.9 460.7,641.1 470.6,641.1 479.9,641.1 493.3,643.9 499.9,647.1 502.2,648.3 506.9,651.3 510.2,653.8 520.7,661.8 522.3,661.9 519.8,654.1 Z M228.5,636.1 C227.2,634.3 227.2,633.7 228.6,630.5 232.2,622.1 243.7,610.1 252.1,605.8 258.8,602.5 267.7,602.8 277.4,606.8 286.7,610.6 298.5,618.2 300.6,621.8 301.9,624.2 301.9,624.6 300.3,626.2 298.7,627.7 296.7,627.9 281.1,627.6 262.2,627.3 263.5,627.1 243.2,634.2 236.9,636.4 231.3,638.2 230.8,638.2 230.4,638.2 229.3,637.3 228.5,636.1 Z M243.4,630.7 C248.5,628.8 256.4,626.3 261,625.2 268.9,623.3 270.2,623.2 281.4,624.4 292.9,625.6 297.6,625.3 297.6,623.5 297.6,621.7 286.8,614.3 279.6,611.1 270.2,606.8 262.4,605.5 257.2,607.2 248.9,610 236.5,621.5 231.5,631.1 229.9,634.2 229.9,634.3 232,634.3 233.2,634.3 238.3,632.7 243.4,630.7 Z M401.1,628.2 C387.8,622.2 381.7,621.5 365.3,623.9 352.4,625.8 348,625.9 345.6,624.1 342.8,622.2 344.3,618.3 349.5,613.4 359.3,604.4 372,599 383.7,599 389.7,599 391.6,599.5 396,602 406.6,607.8 416.9,621.1 417.2,629.2 417.3,632.4 416.9,632.8 414.7,633 413.3,633.1 407.2,631 401.1,628.2 Z M414.7,629.3 C414.7,623.9 406.2,612.9 397.3,606.8 391,602.6 389.6,602 385,602 375.8,602 364.4,606.4 354.6,613.6 345.4,620.3 345.9,622.7 356.1,621.5 359.8,621 367.7,620.4 373.8,620 387,619.2 391.4,620.2 404.6,626.9 409.4,629.3 413.6,631.2 414,631.3 414.4,631.3 414.7,630.4 414.7,629.3 Z M158.6,604.8 C156.4,601.5 159.1,592.4 166.5,578 173.6,564 179.7,556.5 186.7,552.9 191.5,550.5 205.4,550.3 214,552.6 226,555.6 235.9,562 235.9,566.7 235.9,572.1 228.3,575.8 214.3,577 205.9,577.7 195.2,580.5 188.9,583.5 184.7,585.6 173.3,595.8 169.7,600.8 166.9,604.7 160.1,607.2 158.6,604.8 Z M171.2,594.7 C184.1,581.8 195.8,576.1 213.7,574.1 227.1,572.7 232.9,570.4 232.9,566.8 232.9,560 202.4,551.4 191.2,555 183.7,557.3 171.1,574.3 163.7,591.9 161.2,598 160.4,603 162,603 162.5,603 166.6,599.2 171.2,594.7 Z M481.7,592.9 C479.9,591.7 476.6,588.7 474.3,586.1 468.6,579.8 461.7,575.1 455.1,573.2 451.7,572.2 444.1,571.4 435.4,571 427.7,570.7 419.8,570.1 418,569.5 414,568.4 412.7,564.7 414.9,561 418.2,555.2 431.8,548 444.8,545.2 451.7,543.7 462.5,543.9 465.9,545.5 475.3,550.3 484.3,562.1 488.9,575.9 494.2,591.7 491,599.3 481.7,592.9 Z M488.3,587.5 C488.8,580.5 482,565 474.9,557.2 468.4,550 463.7,547.2 458.3,547.2 446.1,547.3 422.7,555.6 417.8,561.6 414.1,566.1 416.4,567 434.2,567.9 459.6,569.1 462.7,570.3 476.2,583.5 481.2,588.4 485.9,592.2 486.6,592 487.4,591.7 488.1,589.8 488.3,587.5 Z M273.7,561.4 C271.2,557.7 272.6,553.6 279.4,543.5 286.9,532.5 300.7,519.1 309,514.8 314.4,512 316.2,511.6 322.8,511.5 334.8,511.5 344.7,516.7 358.8,530.4 368.6,539.8 372.3,544.9 373,549.9 373.5,553.2 373.2,554 370.8,555.8 367.2,558.6 364.1,558.5 353.3,555.6 342.9,552.7 328,550.1 322.2,550.1 315.6,550.1 303.9,553.5 291.6,558.9 278.6,564.5 276.1,564.9 273.7,561.4 Z M289.8,556 C306.9,548 308.3,547.7 324.3,547.8 335.3,547.9 340.2,548.4 346,550 365.4,555.3 367.2,555.5 368.9,553.8 370,552.8 370.3,551.4 369.9,549.8 368.8,545.3 359.8,535.1 350.5,527.8 333.2,514.1 324.2,511.9 310.9,518.4 295.5,525.9 271.7,555.1 277,560.2 278.2,561.4 279.2,561 289.8,556 Z M757.5,924.6 C753.2,923.5 751.1,920.4 751.1,915.3 751.1,908.9 755.3,905.4 762.2,906.2 763.1,906.2 765,907.6 766.5,909.2 771.7,914.6 769.6,923.4 762.7,925 761.6,925.2 759.3,925.1 757.5,924.6 Z M765.1,921.7 C767.1,919.7 766.4,918.2 763.3,917.6 759.2,916.8 757.6,913.7 759.7,910.6 761.2,908.3 761.2,908.2 759.4,908.2 756.9,908.2 754.3,911 753.6,914.8 753,917.2 753.4,918.3 755.5,920.3 758.3,923 763,923.7 765.1,921.7 Z M793.6,922.3 C788.3,917.9 790,909.6 796.7,907.3 802.7,905.3 807.7,909.5 807.7,916.6 807.7,924.2 799.8,927.3 793.6,922.3 Z M803.8,920.9 C803.8,920.9 806.2,919 806.2,919 806.2,919 803.6,919 803.6,919 799.7,918.9 797.2,915.9 798.1,912.2 798.5,910.5 798.4,909.2 797.9,909.2 795.8,909.3 793.4,912.2 792.9,915.3 792.4,918.1 792.8,919 795.1,920.7 798.5,923.4 800.7,923.4 803.8,920.9 Z M922.2,930.1 C921.9,929.3 922.1,928.1 922.7,927.5 924.2,926.1 927.5,928.9 926.5,930.6 925.4,932.2 922.9,931.9 922.2,930.1 Z M905.8,926.9 C904,925.8 904.8,922.5 907,922.1 907.9,921.9 909,922.5 909.4,923.3 910.2,925.4 907.7,927.9 905.8,926.9 Z M714.4,295.1 C713.2,294 713.7,291.1 715.2,290.6 717,289.9 719.2,292.4 718.4,294.3 717.8,295.8 715.6,296.3 714.4,295.1 Z M733.1,289 C731.1,287.9 732.5,284.8 734.7,285.2 735.7,285.4 736.5,286.4 736.5,287.4 736.5,289.6 735.1,290.2 733.1,289 Z " />
</svg>
